<svg xmlns="http://www.w3.org/2000/svg" xmlns:xlink="http://www.w3.org/1999/xlink" width="500" zoomAndPan="magnify" viewBox="0 0 375 374.999991" height="500" preserveAspectRatio="xMidYMid meet" version="1.0"><defs><clipPath id="14acac010c"><path d="M 108 90 L 273 90 L 273 254.710938 L 108 254.710938 Z M 108 90 " clip-rule="nonzero"/></clipPath><clipPath id="b3f451a179"><path d="M 78.414062 133 L 306.414062 133 L 306.414062 192 L 78.414062 192 Z M 78.414062 133 " clip-rule="nonzero"/></clipPath><clipPath id="4e5cf7150d"><path d="M 255 88.210938 L 295 88.210938 L 295 128 L 255 128 Z M 255 88.210938 " clip-rule="nonzero"/></clipPath><clipPath id="87c73f6eac"><path d="M 86 123.222656 L 341 123.222656 L 341 268 L 86 268 Z M 86 123.222656 " clip-rule="nonzero"/></clipPath><clipPath id="d78dfc3a46"><path d="M 29.257812 210 L 100 210 L 100 279 L 29.257812 279 Z M 29.257812 210 " clip-rule="nonzero"/></clipPath><clipPath id="cacf07108f"><path d="M 43 81 L 292 81 L 292 235 L 43 235 Z M 43 81 " clip-rule="nonzero"/></clipPath><clipPath id="b139c07a05"><path d="M 0 72.003906 L 344.488281 42.480469 L 358.960938 211.359375 L 14.476562 240.886719 Z M 0 72.003906 " clip-rule="nonzero"/></clipPath><clipPath id="93764e4129"><path d="M 358.96875 211.582031 L 14.480469 241.109375 L 0.0078125 72.226562 L 344.496094 42.703125 Z M 358.96875 211.582031 " clip-rule="nonzero"/></clipPath><clipPath id="2eef85a9eb"><path d="M 358.96875 211.582031 L 14.480469 241.109375 L 0.0078125 72.226562 L 344.496094 42.703125 Z M 358.96875 211.582031 " clip-rule="nonzero"/></clipPath><clipPath id="91ced918ea"><path d="M 279 61 L 347 61 L 347 127 L 279 127 Z M 279 61 " clip-rule="nonzero"/></clipPath><clipPath id="c7a8b70381"><path d="M 0 72.003906 L 344.488281 42.480469 L 358.960938 211.359375 L 14.476562 240.886719 Z M 0 72.003906 " clip-rule="nonzero"/></clipPath><clipPath id="f3222f639b"><path d="M 358.96875 211.582031 L 14.480469 241.109375 L 0.0078125 72.226562 L 344.496094 42.703125 Z M 358.96875 211.582031 " clip-rule="nonzero"/></clipPath><clipPath id="444043643f"><path d="M 358.96875 211.582031 L 14.480469 241.109375 L 0.0078125 72.226562 L 344.496094 42.703125 Z M 358.96875 211.582031 " clip-rule="nonzero"/></clipPath><clipPath id="bf49313ec2"><path d="M 8 61 L 288 61 L 288 229 L 8 229 Z M 8 61 " clip-rule="nonzero"/></clipPath><clipPath id="18917b61fa"><path d="M 0 72.003906 L 344.488281 42.480469 L 358.960938 211.359375 L 14.476562 240.886719 Z M 0 72.003906 " clip-rule="nonzero"/></clipPath><clipPath id="b0f68f4145"><path d="M 358.96875 211.582031 L 14.480469 241.109375 L 0.0078125 72.226562 L 344.496094 42.703125 Z M 358.96875 211.582031 " clip-rule="nonzero"/></clipPath><clipPath id="5084aeac0e"><path d="M 358.96875 211.582031 L 14.480469 241.109375 L 0.0078125 72.226562 L 344.496094 42.703125 Z M 358.96875 211.582031 " clip-rule="nonzero"/></clipPath><clipPath id="cd844cf771"><path d="M 291 285 L 348 285 L 348 310 L 291 310 Z M 291 285 " clip-rule="nonzero"/></clipPath><clipPath id="3d608c694c"><path d="M 275.757812 298.632812 L 344.9375 269.664062 L 359.132812 303.5625 L 289.949219 332.53125 Z M 275.757812 298.632812 " clip-rule="nonzero"/></clipPath><clipPath id="787d5cda9a"><path d="M 289.941406 332.507812 L 359.121094 303.542969 L 344.929688 269.644531 L 275.746094 298.609375 Z M 289.941406 332.507812 " clip-rule="nonzero"/></clipPath><clipPath id="bb6242e9e2"><path d="M 289.941406 332.507812 L 359.121094 303.542969 L 344.929688 269.644531 L 275.746094 298.609375 Z M 289.941406 332.507812 " clip-rule="nonzero"/></clipPath><clipPath id="df9c716f39"><path d="M 278 296 L 296 296 L 296 314 L 278 314 Z M 278 296 " clip-rule="nonzero"/></clipPath><clipPath id="a47f988a57"><path d="M 275.757812 298.632812 L 344.9375 269.664062 L 359.132812 303.5625 L 289.949219 332.53125 Z M 275.757812 298.632812 " clip-rule="nonzero"/></clipPath><clipPath id="6ddeed6cff"><path d="M 289.941406 332.507812 L 359.121094 303.542969 L 344.929688 269.644531 L 275.746094 298.609375 Z M 289.941406 332.507812 " clip-rule="nonzero"/></clipPath><clipPath id="6437e8877b"><path d="M 289.941406 332.507812 L 359.121094 303.542969 L 344.929688 269.644531 L 275.746094 298.609375 Z M 289.941406 332.507812 " clip-rule="nonzero"/></clipPath><clipPath id="4144a9e535"><path d="M 290 278 L 354 278 L 354 305 L 290 305 Z M 290 278 " clip-rule="nonzero"/></clipPath><clipPath id="6071da33c4"><path d="M 275.757812 298.632812 L 344.9375 269.664062 L 359.132812 303.5625 L 289.949219 332.53125 Z M 275.757812 298.632812 " clip-rule="nonzero"/></clipPath><clipPath id="18ab9b5740"><path d="M 289.941406 332.507812 L 359.121094 303.542969 L 344.929688 269.644531 L 275.746094 298.609375 Z M 289.941406 332.507812 " clip-rule="nonzero"/></clipPath><clipPath id="fe50a4ea1a"><path d="M 289.941406 332.507812 L 359.121094 303.542969 L 344.929688 269.644531 L 275.746094 298.609375 Z M 289.941406 332.507812 " clip-rule="nonzero"/></clipPath></defs><g clip-path="url(#14acac010c)"><path fill="#ffffff" d="M 111.050781 156.710938 C 110.984375 158.296875 110.9375 159.898438 110.960938 161.496094 C 110.617188 162.148438 110.296875 162.808594 110.011719 163.472656 C 110.261719 161.1875 110.617188 158.925781 111.050781 156.710938 Z M 143.714844 106.632812 C 142.265625 108.253906 140.949219 110.058594 139.75 112.023438 C 137.015625 113.394531 134.5 114.878906 132.214844 116.480469 C 135.722656 112.859375 139.578125 109.546875 143.714844 106.632812 Z M 248.246094 116.46875 C 245.960938 114.867188 243.433594 113.371094 240.703125 112.011719 C 239.5 110.023438 238.164062 108.207031 236.699219 106.574219 C 240.449219 109.214844 244.003906 112.183594 247.308594 115.484375 C 247.628906 115.792969 247.9375 116.136719 248.246094 116.46875 Z M 269.5 161.484375 C 269.535156 159.863281 269.488281 158.261719 269.410156 156.664062 C 269.84375 158.878906 270.175781 161.109375 270.425781 163.371094 C 270.152344 162.742188 269.84375 162.101562 269.5 161.484375 Z M 269.179688 189.378906 C 269.007812 186.328125 268.152344 183.359375 266.640625 180.46875 C 268.152344 175.15625 269.078125 169.753906 269.386719 164.351562 C 270.199219 166.292969 270.691406 168.269531 270.90625 170.269531 C 270.917969 171.011719 270.953125 171.765625 270.953125 172.519531 C 270.953125 178.253906 270.347656 183.898438 269.179688 189.378906 Z M 245.492188 231.277344 C 245.6875 230.992188 245.859375 230.695312 246.027344 230.398438 C 246.667969 229.917969 247.285156 229.417969 247.914062 228.914062 C 247.710938 229.121094 247.515625 229.347656 247.308594 229.554688 C 246.714844 230.148438 246.097656 230.707031 245.492188 231.277344 Z M 132.5 228.867188 C 133.128906 229.382812 133.757812 229.898438 134.398438 230.375 C 134.570312 230.671875 134.753906 230.96875 134.945312 231.265625 C 134.339844 230.695312 133.734375 230.136719 133.140625 229.554688 C 132.921875 229.324219 132.71875 229.097656 132.5 228.867188 Z M 119.066406 153.511719 C 119.136719 158.765625 119.796875 164.15625 121.101562 169.664062 C 121.203125 170.074219 121.308594 170.484375 121.410156 170.898438 C 120.679688 171.535156 119.980469 172.1875 119.316406 172.851562 C 117.304688 174.859375 115.648438 176.941406 114.367188 179.054688 C 112.914062 173.628906 112.09375 168.121094 111.910156 162.605469 C 113.542969 159.40625 115.957031 156.355469 119.066406 153.511719 Z M 114.609375 144.28125 C 116.171875 141.265625 118.449219 138.410156 121.339844 135.761719 C 119.890625 140.878906 119.125 146.234375 119.054688 151.753906 C 118.265625 152.4375 117.511719 153.136719 116.800781 153.832031 C 114.8125 155.832031 113.179688 157.863281 111.863281 159.953125 C 111.875 156.800781 112.105469 153.660156 112.539062 150.542969 C 113.144531 148.417969 113.839844 146.328125 114.609375 144.28125 Z M 126.921875 122.53125 C 126.371094 123.480469 125.847656 124.453125 125.355469 125.433594 C 124.738281 125.972656 124.140625 126.496094 123.582031 127.054688 C 124.644531 125.503906 125.753906 123.984375 126.921875 122.53125 Z M 136.730469 117.996094 C 133.105469 119.835938 129.882812 121.847656 127.105469 124.007812 C 127.984375 122.394531 128.957031 120.820312 129.996094 119.277344 C 132.578125 117.164062 135.574219 115.210938 138.902344 113.464844 C 138.113281 114.902344 137.382812 116.410156 136.730469 117.996094 Z M 154.027344 107.433594 C 153.34375 108.859375 152.726562 110.390625 152.175781 112 C 149.867188 112.675781 147.625 113.417969 145.453125 114.21875 C 142.800781 115.210938 140.320312 116.261719 137.988281 117.394531 C 138.707031 115.734375 139.507812 114.171875 140.390625 112.699219 C 144.492188 110.664062 149.078125 108.894531 154.027344 107.433594 Z M 147.75 103.949219 C 148.929688 103.21875 150.117188 102.519531 151.328125 101.859375 C 154.039062 100.613281 156.976562 99.503906 160.085938 98.554688 C 157.9375 100.75 156.097656 103.34375 154.554688 106.347656 C 149.773438 107.730469 145.304688 109.386719 141.269531 111.28125 C 143.132812 108.449219 145.304688 105.992188 147.75 103.949219 Z M 161.492188 97.207031 C 161.289062 97.253906 161.082031 97.3125 160.875 97.378906 C 161.128906 97.277344 161.378906 97.183594 161.632812 97.09375 C 161.585938 97.128906 161.539062 97.164062 161.492188 97.207031 Z M 175.316406 94.375 C 171.175781 94.914062 167.1875 95.6875 163.402344 96.683594 C 163.425781 96.601562 163.4375 96.511719 163.425781 96.429688 C 167.609375 94.957031 171.945312 93.816406 176.414062 93.050781 C 176.023438 93.449219 175.660156 93.894531 175.316406 94.375 Z M 217.058594 96.660156 C 213.273438 95.667969 209.285156 94.890625 205.132812 94.351562 C 204.800781 93.882812 204.449219 93.449219 204.070312 93.050781 C 208.496094 93.816406 212.839844 94.921875 217.046875 96.398438 C 217.023438 96.488281 217.023438 96.570312 217.058594 96.660156 Z M 218.921875 97.164062 C 218.886719 97.128906 218.839844 97.09375 218.796875 97.046875 C 219.046875 97.152344 219.308594 97.242188 219.5625 97.34375 C 219.355469 97.289062 219.140625 97.21875 218.921875 97.164062 Z M 242.472656 117.371094 C 240.140625 116.25 237.660156 115.1875 235.019531 114.207031 C 232.835938 113.40625 230.59375 112.664062 228.296875 111.988281 C 227.746094 110.378906 227.117188 108.859375 226.433594 107.410156 C 231.382812 108.882812 235.96875 110.640625 240.0625 112.6875 C 240.953125 114.160156 241.753906 115.726562 242.472656 117.371094 Z M 250.441406 119.242188 C 251.492188 120.785156 252.464844 122.363281 253.347656 123.972656 C 250.566406 121.824219 247.355469 119.8125 243.730469 117.988281 C 243.078125 116.398438 242.347656 114.878906 241.546875 113.441406 C 244.875 115.199219 247.859375 117.128906 250.441406 119.242188 Z M 255.082031 125.398438 C 254.59375 124.394531 254.054688 123.414062 253.496094 122.429688 C 254.695312 123.949219 255.851562 125.492188 256.9375 127.066406 C 256.339844 126.507812 255.722656 125.9375 255.082031 125.398438 Z M 263.679688 153.832031 C 262.960938 153.125 262.207031 152.4375 261.417969 151.742188 C 261.335938 146.167969 260.558594 140.765625 259.085938 135.601562 C 261.976562 138.273438 264.253906 141.152344 265.84375 144.203125 C 266.632812 146.304688 267.328125 148.441406 267.933594 150.609375 C 268.367188 153.707031 268.585938 156.8125 268.597656 159.941406 C 267.292969 157.851562 265.660156 155.820312 263.679688 153.832031 Z M 260.890625 172.851562 C 260.296875 172.246094 259.65625 171.664062 259.003906 171.089844 C 259.132812 170.613281 259.257812 170.132812 259.359375 169.664062 C 260.675781 164.15625 261.335938 158.765625 261.394531 153.523438 C 261.851562 153.933594 262.296875 154.355469 262.722656 154.792969 C 265.246094 157.304688 267.191406 159.921875 268.5625 162.59375 C 268.378906 168.203125 267.523438 173.820312 266.015625 179.351562 C 264.710938 177.121094 262.996094 174.953125 260.890625 172.851562 Z M 262.6875 189.015625 C 261.453125 186.933594 259.839844 184.925781 257.886719 182.960938 C 257.222656 182.308594 256.535156 181.679688 255.816406 181.039062 C 256.957031 178.058594 257.953125 175.066406 258.765625 172.0625 C 259.269531 172.53125 259.769531 173 260.261719 173.480469 C 262.5625 175.773438 264.367188 178.152344 265.683594 180.574219 C 264.859375 183.417969 263.851562 186.238281 262.6875 189.015625 Z M 268.253906 192.144531 C 267.488281 194.199219 266.652344 196.164062 265.75 198.0625 C 265.488281 195.308594 264.652344 192.613281 263.234375 189.984375 C 264.414062 187.265625 265.429688 184.523438 266.277344 181.738281 C 267.636719 184.605469 268.324219 187.550781 268.324219 190.554688 C 268.324219 191.082031 268.300781 191.617188 268.253906 192.144531 Z M 265.832031 199.921875 C 266.242188 199.125 266.632812 198.300781 267.019531 197.46875 C 266.632812 198.644531 266.230469 199.796875 265.796875 200.960938 C 265.820312 200.609375 265.832031 200.277344 265.832031 199.921875 Z M 230.664062 237.800781 C 231.210938 236.5 231.496094 235.175781 231.542969 233.804688 C 236.792969 231.074219 242.246094 227.566406 247.421875 223.144531 C 247.273438 225.394531 246.566406 227.625 245.355469 229.78125 C 240.804688 233.128906 235.773438 235.777344 230.664062 237.800781 Z M 222.832031 246.324219 C 222.761719 246.34375 222.695312 246.378906 222.625 246.390625 C 223.804688 245.636719 224.890625 244.859375 225.859375 244.027344 C 227.519531 243.535156 229.164062 242.941406 230.765625 242.289062 C 228.195312 243.773438 225.550781 245.125 222.832031 246.324219 Z M 154.507812 243.992188 C 155.445312 244.816406 156.496094 245.589844 157.640625 246.324219 C 157.617188 246.324219 157.59375 246.3125 157.574219 246.300781 C 154.875 245.113281 152.222656 243.765625 149.660156 242.265625 C 151.238281 242.917969 152.863281 243.5 154.507812 243.992188 Z M 133.039062 223.144531 C 138.214844 227.554688 143.671875 231.0625 148.917969 233.792969 C 148.953125 235.152344 149.238281 236.488281 149.773438 237.789062 C 144.675781 235.757812 139.644531 233.117188 135.09375 229.769531 C 133.882812 227.613281 133.175781 225.382812 133.039062 223.144531 Z M 114.617188 199.886719 C 114.617188 200.242188 114.640625 200.585938 114.652344 200.949219 C 114.207031 199.761719 113.796875 198.574219 113.40625 197.375 C 113.796875 198.230469 114.195312 199.078125 114.617188 199.886719 Z M 124.644531 181.03125 C 123.925781 181.667969 123.226562 182.296875 122.578125 182.960938 C 120.609375 184.914062 119.019531 186.933594 117.785156 188.992188 C 116.574219 186.125 115.546875 183.210938 114.699219 180.265625 C 116.355469 177.304688 118.710938 174.496094 121.660156 171.867188 C 122.472656 174.929688 123.480469 177.992188 124.644531 181.03125 Z M 134.386719 163.460938 C 135.027344 166.671875 135.804688 169.902344 136.71875 173.125 C 132.410156 175.285156 128.589844 177.726562 125.378906 180.414062 C 124.210938 177.351562 123.214844 174.277344 122.417969 171.21875 C 125.742188 168.371094 129.765625 165.78125 134.386719 163.460938 Z M 133.90625 127.238281 C 132.96875 131.558594 132.410156 136.21875 132.304688 141.210938 C 132.28125 141.835938 132.292969 142.464844 132.292969 143.09375 C 127.617188 145.425781 123.46875 148.0625 119.980469 150.964844 C 120.128906 145.296875 121.011719 139.828125 122.632812 134.605469 C 125.800781 131.921875 129.597656 129.457031 133.90625 127.238281 Z M 134.167969 126.027344 C 129.972656 128.152344 126.269531 130.496094 123.136719 133.007812 C 123.972656 130.597656 124.953125 128.246094 126.097656 125.949219 C 128.980469 123.480469 132.410156 121.21875 136.285156 119.1875 C 135.460938 121.34375 134.742188 123.628906 134.167969 126.027344 Z M 150.128906 119.835938 C 146.847656 120.796875 143.691406 121.882812 140.71875 123.070312 C 138.8125 123.847656 136.980469 124.65625 135.234375 125.503906 C 135.851562 123.070312 136.59375 120.738281 137.472656 118.570312 C 141.773438 116.410156 146.609375 114.535156 151.832031 112.984375 C 151.160156 115.121094 150.574219 117.402344 150.128906 119.835938 Z M 170.195312 109.066406 C 169.839844 111.210938 169.542969 113.464844 169.324219 115.78125 C 162.957031 116.660156 156.828125 117.917969 151.089844 119.550781 C 151.570312 117.09375 152.164062 114.8125 152.886719 112.675781 C 158.28125 111.121094 164.089844 109.910156 170.195312 109.066406 Z M 171.292969 103.765625 C 170.9375 105.160156 170.628906 106.621094 170.34375 108.164062 C 164.386719 108.972656 158.636719 110.152344 153.226562 111.679688 C 153.8125 110.058594 154.453125 108.527344 155.171875 107.089844 C 160.214844 105.660156 165.632812 104.542969 171.292969 103.765625 Z M 189.777344 101.605469 C 183.84375 101.617188 178.027344 101.996094 172.457031 102.703125 C 173.339844 99.675781 174.449219 97.128906 175.773438 95.222656 C 180.3125 94.625 185 94.320312 189.777344 94.296875 Z M 208.015625 102.703125 C 202.433594 101.996094 196.617188 101.617188 190.671875 101.605469 L 190.671875 94.296875 C 195.472656 94.308594 200.160156 94.617188 204.664062 95.1875 C 206.015625 97.105469 207.109375 99.652344 208.015625 102.703125 Z M 210.117188 108.152344 C 209.84375 106.621094 209.535156 105.148438 209.167969 103.753906 C 214.839844 104.53125 220.246094 105.648438 225.289062 107.078125 C 226.011719 108.515625 226.660156 110.058594 227.246094 111.679688 C 221.824219 110.140625 216.085938 108.960938 210.117188 108.152344 Z M 229.371094 119.515625 C 223.675781 117.90625 217.5625 116.640625 211.148438 115.757812 C 210.917969 113.441406 210.632812 111.203125 210.265625 109.066406 C 216.382812 109.898438 222.191406 111.121094 227.585938 112.664062 C 228.296875 114.800781 228.890625 117.074219 229.371094 119.515625 Z M 245.230469 125.445312 C 240.734375 123.273438 235.738281 121.378906 230.332031 119.804688 C 229.875 117.371094 229.3125 115.109375 228.628906 112.972656 C 233.863281 114.535156 238.6875 116.398438 242.988281 118.546875 C 243.867188 120.714844 244.609375 123.023438 245.230469 125.445312 Z M 246.292969 125.960938 C 245.707031 123.574219 245 121.3125 244.175781 119.175781 C 248.050781 121.195312 251.472656 123.457031 254.351562 125.925781 C 255.484375 128.1875 256.480469 130.527344 257.300781 132.917969 C 254.144531 130.390625 250.441406 128.050781 246.292969 125.960938 Z M 248.179688 143.082031 C 248.179688 142.464844 248.179688 141.835938 248.167969 141.210938 C 248.050781 136.160156 247.492188 131.429688 246.53125 127.066406 C 250.832031 129.273438 254.625 131.75 257.78125 134.445312 C 259.429688 139.722656 260.34375 145.242188 260.492188 150.953125 C 256.992188 148.0625 252.855469 145.425781 248.179688 143.082031 Z M 243.742188 173.125 C 244.65625 169.9375 245.421875 166.75 246.050781 163.585938 C 250.683594 165.929688 254.695312 168.542969 258 171.398438 C 257.210938 174.402344 256.238281 177.429688 255.09375 180.425781 C 251.871094 177.726562 248.050781 175.296875 243.742188 173.125 Z M 251.207031 189.289062 C 248.210938 186.785156 244.667969 184.511719 240.667969 182.503906 C 241.71875 179.679688 242.65625 176.847656 243.492188 173.992188 C 247.789062 176.164062 251.574219 178.609375 254.753906 181.304688 C 253.699219 183.988281 252.523438 186.648438 251.207031 189.289062 Z M 258.46875 197.570312 C 257.289062 195.558594 255.746094 193.59375 253.835938 191.675781 C 253.230469 191.070312 252.570312 190.476562 251.90625 189.894531 C 253.230469 187.265625 254.410156 184.605469 255.472656 181.933594 C 256.078125 182.480469 256.683594 183.027344 257.246094 183.589844 C 259.335938 185.691406 260.996094 187.835938 262.242188 190.054688 C 261.121094 192.589844 259.875 195.101562 258.46875 197.570312 Z M 211.925781 240.015625 C 211.855469 239.34375 211.671875 238.667969 211.375 238.007812 C 217.871094 235.503906 223.941406 232.457031 229.53125 228.890625 C 230.238281 230.308594 230.605469 231.769531 230.640625 233.265625 C 223.621094 236.863281 216.988281 239.035156 211.925781 240.015625 Z M 211.59375 242.679688 C 211.796875 242.117188 211.914062 241.523438 211.949219 240.929688 C 216.988281 239.949219 223.585938 237.824219 230.617188 234.269531 C 230.515625 235.621094 230.136719 236.957031 229.496094 238.246094 C 223.335938 240.566406 217.136719 242.015625 211.59375 242.679688 Z M 207.042969 247.75 C 207.832031 247.257812 208.539062 246.722656 209.15625 246.164062 C 213.777344 246.472656 218.785156 245.910156 223.722656 244.632812 C 222.375 245.613281 220.84375 246.539062 219.183594 247.375 C 215.367188 248.296875 212.289062 248.320312 207.042969 247.75 Z M 179.363281 250.296875 C 182.597656 251.234375 186.328125 251.769531 190.226562 251.769531 C 192.15625 251.769531 194.019531 251.644531 195.792969 251.417969 C 196.386719 252 197.003906 252.480469 197.632812 252.832031 C 195.1875 253.050781 192.71875 253.175781 190.226562 253.175781 C 184.761719 253.175781 179.375 252.628906 174.128906 251.578125 C 175.957031 251.417969 177.648438 250.996094 179.363281 250.296875 Z M 171.335938 246.164062 C 171.953125 246.722656 172.664062 247.257812 173.453125 247.75 C 168.171875 248.320312 165.09375 248.296875 161.253906 247.363281 C 159.597656 246.527344 158.074219 245.613281 156.726562 244.621094 C 161.675781 245.910156 166.707031 246.472656 171.335938 246.164062 Z M 168.515625 240.929688 C 168.546875 241.511719 168.664062 242.109375 168.867188 242.679688 C 163.324219 242.003906 157.113281 240.566406 150.953125 238.234375 C 150.3125 236.945312 149.933594 235.621094 149.84375 234.269531 C 156.863281 237.8125 163.460938 239.949219 168.515625 240.929688 Z M 150.917969 228.867188 C 156.519531 232.457031 162.589844 235.503906 169.085938 237.996094 C 168.777344 238.65625 168.59375 239.332031 168.523438 240.015625 C 163.460938 239.023438 156.839844 236.851562 149.808594 233.253906 C 149.84375 231.746094 150.234375 230.285156 150.917969 228.867188 Z M 121.488281 198.460938 C 120.175781 200.929688 119.410156 203.464844 119.203125 206.070312 C 117.890625 204.035156 116.652344 201.933594 115.523438 199.695312 C 115.554688 196.722656 116.300781 193.835938 117.683594 191.058594 C 118.816406 193.570312 120.082031 196.039062 121.488281 198.460938 Z M 128.566406 189.882812 C 127.882812 190.476562 127.230469 191.070312 126.613281 191.675781 C 124.714844 193.582031 123.171875 195.546875 121.992188 197.558594 C 120.597656 195.089844 119.339844 192.589844 118.230469 190.054688 C 119.832031 187.1875 122.117188 184.46875 124.988281 181.933594 C 126.050781 184.59375 127.242188 187.253906 128.566406 189.882812 Z M 139.804688 182.492188 C 135.792969 184.503906 132.25 186.773438 129.253906 189.277344 C 127.9375 186.648438 126.761719 183.976562 125.707031 181.304688 C 128.851562 178.652344 132.648438 176.210938 136.980469 174.027344 C 137.816406 176.859375 138.753906 179.691406 139.804688 182.492188 Z M 152.542969 168.03125 C 153.160156 170.921875 153.855469 173.84375 154.632812 176.78125 C 149.535156 178.253906 144.835938 180.035156 140.605469 182.089844 C 139.566406 179.28125 138.628906 176.460938 137.792969 173.628906 C 142.207031 171.480469 147.167969 169.59375 152.542969 168.03125 Z M 150.53125 157.222656 C 151.03125 160.46875 151.628906 163.769531 152.335938 167.117188 C 146.972656 168.667969 142 170.542969 137.542969 172.726562 C 136.628906 169.492188 135.851562 166.257812 135.210938 163.050781 C 139.804688 160.8125 144.949219 158.847656 150.53125 157.222656 Z M 148.804688 138.160156 C 148.917969 143.871094 149.453125 149.960938 150.390625 156.300781 C 144.824219 157.910156 139.667969 159.851562 135.027344 162.113281 C 133.859375 155.992188 133.242188 149.960938 133.175781 144.167969 C 137.851562 141.859375 143.097656 139.851562 148.804688 138.160156 Z M 149.113281 127.363281 C 148.847656 130.347656 148.746094 133.488281 148.769531 136.742188 C 143.144531 138.386719 137.90625 140.375 133.1875 142.648438 C 133.1875 142.179688 133.1875 141.699219 133.199219 141.230469 C 133.3125 136.035156 133.90625 131.167969 134.933594 126.714844 C 139.453125 124.484375 144.480469 122.519531 149.945312 120.875 C 149.59375 122.945312 149.304688 125.089844 149.113281 127.363281 Z M 168.652344 132.585938 C 161.972656 133.488281 155.605469 134.800781 149.660156 136.480469 C 149.636719 133.382812 149.753906 130.359375 150.003906 127.433594 C 150.210938 125.046875 150.519531 122.761719 150.894531 120.613281 C 156.625 118.933594 162.785156 117.621094 169.234375 116.71875 C 168.789062 121.835938 168.617188 127.273438 168.652344 132.585938 Z M 189.777344 115.257812 L 189.777344 131.167969 C 182.78125 131.191406 175.945312 131.648438 169.382812 132.492188 C 169.371094 126.828125 169.578125 121.46875 170.023438 116.605469 C 176.378906 115.757812 183 115.289062 189.777344 115.257812 Z M 189.777344 107.730469 L 189.777344 114.367188 C 183.113281 114.386719 176.503906 114.832031 170.113281 115.667969 C 170.355469 113.316406 170.652344 111.054688 171.027344 108.960938 C 177.03125 108.175781 183.320312 107.75 189.777344 107.730469 Z M 189.777344 106.828125 C 183.421875 106.847656 177.203125 107.261719 171.1875 108.039062 C 171.484375 106.496094 171.816406 105.023438 172.183594 103.652344 C 177.84375 102.910156 183.742188 102.519531 189.777344 102.496094 Z M 190.671875 106.828125 L 190.671875 102.496094 C 196.71875 102.519531 202.617188 102.910156 208.277344 103.640625 C 208.65625 105.011719 208.976562 106.484375 209.273438 108.039062 C 203.257812 107.261719 197.027344 106.847656 190.671875 106.828125 Z M 190.671875 114.367188 L 190.671875 107.730469 C 197.140625 107.742188 203.429688 108.164062 209.445312 108.949219 C 209.808594 111.054688 210.105469 113.292969 210.347656 115.644531 C 204.046875 114.824219 197.4375 114.386719 190.671875 114.367188 Z M 211.078125 132.492188 C 204.527344 131.636719 197.679688 131.179688 190.671875 131.167969 L 190.671875 115.257812 C 197.484375 115.28125 204.105469 115.734375 210.4375 116.558594 C 210.894531 121.4375 211.101562 126.816406 211.078125 132.492188 Z M 230.46875 127.433594 C 230.71875 130.359375 230.824219 133.382812 230.800781 136.480469 C 224.867188 134.800781 218.5 133.488281 211.820312 132.585938 C 211.84375 127.25 211.683594 121.800781 211.226562 116.660156 C 217.699219 117.550781 223.835938 118.84375 229.542969 120.476562 C 229.941406 122.679688 230.25 125 230.46875 127.433594 Z M 231.691406 136.742188 C 231.726562 133.488281 231.613281 130.347656 231.359375 127.363281 C 231.15625 125.058594 230.867188 122.863281 230.503906 120.75 C 235.96875 122.371094 241 124.316406 245.503906 126.542969 C 246.542969 131.054688 247.148438 135.964844 247.273438 141.230469 C 247.285156 141.699219 247.273438 142.179688 247.285156 142.648438 C 242.566406 140.363281 237.328125 138.386719 231.691406 136.742188 Z M 230.058594 156.378906 C 231.015625 149.992188 231.554688 143.871094 231.667969 138.113281 C 237.339844 139.792969 242.585938 141.816406 247.285156 144.144531 C 247.230469 149.96875 246.589844 156.058594 245.421875 162.226562 C 240.792969 159.953125 235.625 158 230.058594 156.378906 Z M 228.125 167.128906 C 228.832031 163.804688 229.417969 160.535156 229.921875 157.328125 C 230.59375 157.519531 231.28125 157.703125 231.953125 157.910156 C 236.78125 159.429688 241.214844 161.1875 245.230469 163.164062 C 244.601562 166.339844 243.832031 169.539062 242.929688 172.726562 C 238.460938 170.554688 233.5 168.667969 228.125 167.128906 Z M 225.839844 176.78125 C 226.617188 173.832031 227.3125 170.898438 227.929688 167.996094 C 233.292969 169.539062 238.242188 171.421875 242.679688 173.59375 C 241.84375 176.4375 240.90625 179.28125 239.867188 182.101562 C 235.636719 180.046875 230.925781 178.253906 225.839844 176.78125 Z M 236.824219 189.597656 C 235.019531 193.664062 233.03125 197.59375 230.859375 201.375 C 227.425781 199.695312 223.609375 198.242188 219.480469 197.042969 C 220.703125 193.742188 221.871094 190.339844 222.957031 186.867188 C 223.917969 183.769531 224.808594 180.699219 225.621094 177.660156 C 230.675781 179.109375 235.351562 180.882812 239.558594 182.9375 C 238.699219 185.175781 237.808594 187.402344 236.824219 189.597656 Z M 239.980469 207.152344 C 237.601562 205.175781 234.800781 203.371094 231.65625 201.773438 C 233.828125 197.980469 235.832031 194.039062 237.648438 189.960938 C 238.621094 187.769531 239.523438 185.5625 240.359375 183.335938 C 244.324219 185.347656 247.835938 187.609375 250.785156 190.097656 C 247.800781 195.960938 244.175781 201.683594 239.980469 207.152344 Z M 242.210938 209.175781 C 241.71875 208.683594 241.191406 208.203125 240.65625 207.734375 C 244.851562 202.277344 248.488281 196.566406 251.484375 190.703125 C 252.078125 191.242188 252.660156 191.765625 253.199219 192.316406 C 255.199219 194.3125 256.777344 196.359375 257.941406 198.460938 C 257.632812 198.996094 257.324219 199.535156 257.003906 200.058594 C 253.859375 205.144531 250.203125 209.859375 246.097656 214.179688 C 245.113281 212.453125 243.824219 210.796875 242.210938 209.175781 Z M 227.164062 224.164062 C 226.855469 223.863281 226.523438 223.566406 226.191406 223.28125 C 231.097656 218.929688 235.738281 214.007812 239.933594 208.683594 C 239.992188 208.605469 240.050781 208.511719 240.105469 208.445312 C 240.621094 208.890625 241.113281 209.347656 241.570312 209.804688 C 243.203125 211.4375 244.484375 213.128906 245.445312 214.851562 C 240.816406 219.617188 235.589844 223.875 229.863281 227.601562 C 229.175781 226.425781 228.273438 225.28125 227.164062 224.164062 Z M 209.570312 235.460938 C 209.5 235.390625 209.445312 235.34375 209.375 235.289062 C 214.875 232.285156 220.328125 228.398438 225.519531 223.875 C 225.871094 224.171875 226.214844 224.480469 226.535156 224.800781 C 227.597656 225.875 228.457031 226.972656 229.121094 228.089844 C 223.515625 231.667969 217.445312 234.71875 210.953125 237.207031 C 210.585938 236.601562 210.128906 236.019531 209.570312 235.460938 Z M 154.921875 223.855469 C 160.121094 228.390625 165.585938 232.273438 171.085938 235.277344 C 171.015625 235.34375 170.949219 235.390625 170.890625 235.460938 C 170.332031 236.019531 169.875 236.601562 169.496094 237.207031 C 163.003906 234.71875 156.945312 231.65625 151.339844 228.089844 C 152.210938 226.59375 153.421875 225.179688 154.921875 223.855469 Z M 140.34375 208.433594 C 140.410156 208.511719 140.46875 208.605469 140.539062 208.683594 C 144.722656 214.007812 149.363281 218.929688 154.269531 223.269531 C 153.9375 223.566406 153.605469 223.863281 153.285156 224.164062 C 152.175781 225.269531 151.273438 226.425781 150.585938 227.601562 C 144.871094 223.875 139.644531 219.605469 135.015625 214.851562 C 136.261719 212.589844 138.066406 210.433594 140.34375 208.433594 Z M 139.804688 207.726562 C 139.269531 208.191406 138.742188 208.683594 138.25 209.175781 C 136.628906 210.785156 135.347656 212.453125 134.363281 214.15625 C 130.246094 209.847656 126.601562 205.144531 123.46875 200.058594 C 123.136719 199.535156 122.839844 198.996094 122.519531 198.460938 C 124.039062 195.71875 126.222656 193.125 128.980469 190.703125 C 131.984375 196.554688 135.609375 202.265625 139.804688 207.726562 Z M 142.824219 189.960938 C 144.628906 194.027344 146.632812 197.96875 148.804688 201.761719 C 145.660156 203.371094 142.859375 205.175781 140.492188 207.140625 C 136.296875 201.683594 132.660156 195.960938 129.675781 190.097656 C 132.601562 187.644531 136.113281 185.382812 140.113281 183.371094 C 140.960938 185.585938 141.863281 187.78125 142.824219 189.960938 Z M 157.515625 186.867188 C 158.601562 190.339844 159.765625 193.742188 160.980469 197.042969 C 156.851562 198.230469 153.035156 199.695312 149.605469 201.375 C 147.441406 197.59375 145.441406 193.664062 143.636719 189.597656 C 142.664062 187.414062 141.773438 185.199219 140.925781 182.960938 C 145.097656 180.9375 149.773438 179.15625 154.863281 177.695312 C 155.675781 180.722656 156.542969 183.792969 157.515625 186.867188 Z M 171.679688 174.1875 C 172.582031 181.097656 173.636719 187.835938 174.800781 194.15625 C 170.285156 194.769531 165.976562 195.652344 161.941406 196.769531 C 159.664062 190.648438 157.574219 184.125 155.789062 177.429688 C 160.738281 176.039062 166.066406 174.953125 171.679688 174.1875 Z M 170.515625 164.296875 C 170.824219 167.300781 171.175781 170.316406 171.554688 173.285156 C 165.941406 174.039062 160.566406 175.125 155.546875 176.527344 C 154.78125 173.640625 154.085938 170.714844 153.457031 167.777344 C 158.761719 166.292969 164.488281 165.105469 170.515625 164.296875 Z M 169.507812 153.261719 C 169.667969 155.351562 169.828125 157.269531 169.988281 158.960938 C 170.113281 160.433594 170.261719 161.917969 170.421875 163.390625 C 164.386719 164.191406 158.625 165.367188 153.25 166.863281 C 152.554688 163.5625 151.9375 160.261719 151.433594 156.960938 C 157.058594 155.375 163.128906 154.128906 169.507812 153.261719 Z M 169.453125 152.371094 C 163.070312 153.214844 156.976562 154.449219 151.296875 156.046875 C 150.359375 149.878906 149.785156 143.769531 149.683594 137.898438 C 155.570312 136.207031 161.941406 134.871094 168.664062 133.957031 C 168.71875 140.59375 169.0625 147.011719 169.453125 152.371094 Z M 189.777344 151.011719 C 183.054688 151.023438 176.484375 151.457031 170.171875 152.265625 C 169.714844 145.949219 169.441406 139.746094 169.394531 133.851562 C 175.898438 132.984375 182.734375 132.539062 189.777344 132.515625 Z M 210.289062 152.300781 C 203.988281 151.476562 197.40625 151.03125 190.671875 151.011719 L 190.671875 132.515625 C 197.679688 132.527344 204.527344 132.984375 211.078125 133.839844 C 211.03125 139.746094 210.757812 145.960938 210.289062 152.300781 Z M 211.019531 152.390625 C 211.410156 147.023438 211.742188 140.605469 211.808594 133.933594 C 218.488281 134.835938 224.855469 136.160156 230.789062 137.863281 C 230.675781 143.757812 230.101562 149.914062 229.164062 156.117188 C 223.496094 154.503906 217.402344 153.25 211.019531 152.390625 Z M 210.050781 163.390625 C 210.199219 161.917969 210.347656 160.433594 210.484375 158.960938 C 210.632812 157.28125 210.792969 155.386719 210.953125 153.304688 C 217.253906 154.164062 223.324219 155.429688 229.027344 157.0625 C 228.515625 160.332031 227.90625 163.597656 227.210938 166.863281 C 221.835938 165.367188 216.074219 164.191406 210.050781 163.390625 Z M 208.90625 173.285156 C 209.285156 170.304688 209.636719 167.300781 209.957031 164.273438 C 215.949219 165.082031 221.6875 166.238281 227.027344 167.734375 C 226.386719 170.691406 225.691406 173.628906 224.921875 176.527344 C 219.894531 175.125 214.53125 174.039062 208.90625 173.285156 Z M 205.660156 194.15625 C 206.824219 187.824219 207.890625 181.085938 208.792969 174.175781 C 214.371094 174.929688 219.710938 176.003906 224.695312 177.398438 C 222.898438 184.101562 220.796875 190.648438 218.53125 196.78125 C 214.496094 195.652344 210.175781 194.769531 205.660156 194.15625 Z M 210.484375 215.390625 C 207.636719 214.601562 204.597656 213.960938 201.417969 213.515625 C 202.859375 208.078125 204.242188 201.808594 205.511719 195.035156 C 209.96875 195.640625 214.234375 196.507812 218.222656 197.617188 C 215.789062 204.125 213.148438 210.144531 210.484375 215.390625 Z M 218.980469 218.578125 C 216.679688 217.457031 214.152344 216.484375 211.421875 215.664062 C 214.121094 210.363281 216.75 204.34375 219.171875 197.878906 C 223.253906 199.054688 227.039062 200.492188 230.421875 202.148438 C 227.015625 208.023438 223.175781 213.515625 218.980469 218.578125 Z M 219.789062 218.988281 C 223.976562 213.925781 227.816406 208.421875 231.222656 202.550781 C 234.332031 204.125 237.089844 205.917969 239.433594 207.863281 C 239.363281 207.953125 239.296875 208.03125 239.226562 208.125 C 235.042969 213.449219 230.398438 218.359375 225.519531 222.6875 C 223.871094 221.328125 221.953125 220.085938 219.789062 218.988281 Z M 211.011719 216.476562 C 213.671875 217.261719 216.15625 218.1875 218.382812 219.261719 C 214.300781 224.105469 209.878906 228.539062 205.167969 232.457031 C 204.09375 231.941406 202.914062 231.472656 201.65625 231.085938 C 204.710938 227.496094 207.898438 222.472656 211.011719 216.476562 Z M 201.1875 214.394531 C 204.296875 214.816406 207.28125 215.433594 210.074219 216.210938 C 206.90625 222.347656 203.703125 227.359375 200.71875 230.808594 C 199.152344 230.375 197.484375 230.035156 195.746094 229.804688 C 197.542969 226.34375 199.394531 221.007812 201.1875 214.394531 Z M 190.671875 213.664062 C 193.996094 213.675781 197.246094 213.894531 200.367188 214.28125 C 198.546875 220.90625 196.648438 226.242188 194.785156 229.691406 C 193.460938 229.542969 192.078125 229.460938 190.671875 229.449219 Z M 185.675781 229.691406 C 183.8125 226.242188 181.914062 220.90625 180.105469 214.28125 C 183.195312 213.882812 186.441406 213.675781 189.777344 213.652344 L 189.777344 229.449219 C 188.382812 229.460938 187 229.542969 185.675781 229.691406 Z M 179.753906 230.808594 C 176.769531 227.359375 173.566406 222.347656 170.398438 216.210938 C 173.179688 215.445312 176.152344 214.828125 179.285156 214.394531 C 181.066406 221.019531 182.917969 226.34375 184.726562 229.804688 C 182.976562 230.023438 181.308594 230.363281 179.753906 230.808594 Z M 175.304688 232.457031 C 170.59375 228.539062 166.171875 224.105469 162.078125 219.273438 C 164.316406 218.210938 166.789062 217.273438 169.460938 216.476562 C 172.574219 222.472656 175.761719 227.496094 178.804688 231.074219 C 177.546875 231.472656 176.367188 231.929688 175.304688 232.457031 Z M 160.671875 218.976562 C 158.519531 220.085938 156.589844 221.328125 154.941406 222.675781 C 150.0625 218.347656 145.417969 213.449219 141.246094 208.125 C 141.167969 208.03125 141.097656 207.941406 141.027344 207.851562 C 143.351562 205.929688 146.117188 204.160156 149.25 202.574219 C 152.65625 208.433594 156.484375 213.925781 160.671875 218.976562 Z M 169.039062 215.664062 C 166.320312 216.476562 163.78125 217.445312 161.492188 218.566406 C 157.296875 213.515625 153.46875 208.03125 150.0625 202.171875 C 153.421875 200.527344 157.207031 199.101562 161.300781 197.914062 C 163.722656 204.355469 166.351562 210.375 169.039062 215.664062 Z M 179.042969 213.515625 C 175.863281 213.960938 172.835938 214.601562 169.988281 215.390625 C 167.324219 210.144531 164.695312 204.125 162.261719 197.625 C 166.226562 196.53125 170.480469 195.664062 174.960938 195.046875 C 176.230469 201.808594 177.613281 208.078125 179.042969 213.515625 Z M 189.777344 194.027344 L 189.777344 212.761719 C 186.371094 212.785156 183.054688 213.011719 179.867188 213.414062 C 178.414062 207.976562 177.007812 201.703125 175.726562 194.941406 C 180.222656 194.359375 184.929688 194.050781 189.777344 194.027344 Z M 189.777344 172.953125 L 189.777344 193.136719 C 184.898438 193.148438 180.128906 193.46875 175.566406 194.050781 C 174.378906 187.722656 173.316406 180.972656 172.414062 174.085938 C 177.96875 173.363281 183.789062 172.976562 189.777344 172.953125 Z M 189.777344 162.980469 L 189.777344 172.0625 C 183.777344 172.074219 177.921875 172.460938 172.296875 173.183594 C 171.910156 170.210938 171.554688 167.207031 171.234375 164.179688 C 177.167969 163.425781 183.375 163.003906 189.777344 162.980469 Z M 189.777344 162.089844 C 183.386719 162.101562 177.132812 162.511719 171.144531 163.289062 C 170.800781 159.910156 170.492188 156.515625 170.238281 153.167969 C 176.484375 152.359375 183.035156 151.925781 189.777344 151.902344 Z M 190.671875 162.089844 L 190.671875 151.914062 C 197.324219 151.933594 203.886719 152.390625 210.222656 153.214844 C 209.980469 156.550781 209.671875 159.921875 209.316406 163.289062 C 203.328125 162.511719 197.074219 162.101562 190.671875 162.089844 Z M 190.671875 172.0625 L 190.671875 162.980469 C 197.050781 163.003906 203.269531 163.402344 209.238281 164.167969 C 208.917969 167.195312 208.5625 170.210938 208.175781 173.191406 C 202.550781 172.460938 196.683594 172.074219 190.671875 172.0625 Z M 190.671875 193.136719 L 190.671875 172.953125 C 196.640625 172.964844 202.46875 173.351562 208.058594 174.074219 C 207.15625 180.972656 206.082031 187.722656 204.90625 194.0625 C 200.332031 193.46875 195.550781 193.148438 190.671875 193.136719 Z M 190.671875 194.027344 C 195.507812 194.050781 200.21875 194.347656 204.746094 194.929688 C 203.464844 201.703125 202.058594 207.976562 200.59375 213.425781 C 197.40625 213.011719 194.078125 212.785156 190.671875 212.761719 Z M 171.785156 234.648438 C 166.296875 231.667969 160.808594 227.804688 155.605469 223.261719 C 157.207031 221.96875 159.105469 220.769531 161.253906 219.683594 C 165.335938 224.527344 169.75 228.949219 174.4375 232.902344 C 173.453125 233.425781 172.5625 234.007812 171.785156 234.648438 Z M 206.023438 232.902344 C 210.722656 228.960938 215.136719 224.527344 219.207031 219.683594 C 221.332031 220.769531 223.21875 221.96875 224.832031 223.292969 C 219.628906 227.816406 214.164062 231.679688 208.675781 234.660156 C 207.898438 234.019531 207.019531 233.4375 206.023438 232.902344 Z M 199.542969 252.628906 C 198.640625 252.421875 197.769531 251.953125 196.9375 251.246094 C 198.410156 251.007812 199.804688 250.6875 201.121094 250.308594 C 202.835938 250.996094 204.515625 251.417969 206.324219 251.578125 C 204.09375 252.023438 201.816406 252.367188 199.542969 252.628906 Z M 208.609375 244.804688 C 205.203125 248.21875 197.976562 250.421875 190.226562 250.421875 C 182.472656 250.421875 175.257812 248.21875 171.839844 244.804688 C 170.515625 243.476562 169.839844 242.0625 169.839844 240.609375 C 169.839844 235.183594 178.984375 230.777344 190.226562 230.777344 C 197.976562 230.777344 205.203125 232.992188 208.609375 236.40625 C 209.945312 237.734375 210.621094 239.148438 210.621094 240.609375 C 210.621094 242.0625 209.945312 243.476562 208.609375 244.804688 Z M 120.027344 207.359375 C 120.074219 204.617188 120.769531 201.957031 122.039062 199.386719 C 122.257812 199.773438 122.472656 200.152344 122.714844 200.539062 C 125.925781 205.75 129.6875 210.582031 133.917969 215 C 132.898438 217.011719 132.316406 219.078125 132.167969 221.191406 C 127.789062 217.273438 123.640625 212.695312 120.027344 207.359375 Z M 133.015625 221.945312 C 133.070312 219.789062 133.609375 217.695312 134.582031 215.6875 C 139.234375 220.414062 144.449219 224.675781 150.164062 228.390625 C 149.445312 229.828125 149.042969 231.300781 148.941406 232.808594 C 143.660156 230.023438 138.195312 226.445312 133.015625 221.945312 Z M 153.925781 242.246094 C 153.011719 241.34375 152.265625 240.40625 151.660156 239.457031 C 157.753906 241.660156 163.859375 243.019531 169.300781 243.636719 C 169.609375 244.222656 170 244.769531 170.480469 245.316406 C 165.542969 245.535156 160.167969 244.769531 154.964844 243.214844 C 154.609375 242.894531 154.246094 242.574219 153.925781 242.246094 Z M 167.074219 249.816406 C 166.203125 249.519531 165.347656 249.199219 164.523438 248.871094 C 167.394531 249.191406 170.355469 249.007812 174.789062 248.492188 C 175.773438 249.007812 176.835938 249.464844 177.992188 249.851562 C 175.554688 250.675781 173.121094 250.925781 170.148438 250.652344 C 170.136719 250.652344 170.113281 250.652344 170.113281 250.652344 C 169.097656 250.402344 168.078125 250.113281 167.074219 249.816406 Z M 213.375 249.816406 C 212.371094 250.113281 211.363281 250.390625 210.347656 250.652344 C 210.335938 250.652344 210.335938 250.652344 210.324219 250.652344 C 207.351562 250.925781 204.9375 250.675781 202.515625 249.863281 C 203.671875 249.464844 204.746094 249.007812 205.714844 248.503906 C 210.117188 249.007812 213.066406 249.191406 215.925781 248.871094 C 215.101562 249.199219 214.246094 249.519531 213.375 249.816406 Z M 225.484375 243.214844 C 220.28125 244.769531 214.921875 245.535156 210.003906 245.316406 C 210.472656 244.769531 210.859375 244.222656 211.179688 243.636719 C 216.601562 243.019531 222.707031 241.671875 228.800781 239.46875 C 228.183594 240.40625 227.4375 241.34375 226.535156 242.246094 C 226.203125 242.574219 225.839844 242.894531 225.484375 243.214844 Z M 231.507812 232.820312 C 231.417969 231.300781 231.007812 229.839844 230.285156 228.390625 C 236.015625 224.675781 241.226562 220.425781 245.878906 215.6875 C 246.875 217.71875 247.390625 219.820312 247.433594 221.957031 C 242.257812 226.445312 236.792969 230.035156 231.507812 232.820312 Z M 248.292969 221.203125 C 248.144531 219.089844 247.5625 217.023438 246.53125 215.011719 C 250.785156 210.582031 254.546875 205.75 257.757812 200.539062 C 257.988281 200.152344 258.203125 199.773438 258.433594 199.386719 C 259.714844 201.980469 260.390625 204.652344 260.421875 207.382812 C 256.808594 212.703125 252.671875 217.285156 248.292969 221.203125 Z M 261.257812 206.089844 C 261.039062 203.488281 260.273438 200.949219 258.984375 198.472656 C 260.378906 196.039062 261.65625 193.570312 262.777344 191.058594 C 264.183594 193.878906 264.90625 196.757812 264.9375 199.71875 C 263.796875 201.945312 262.5625 204.070312 261.257812 206.089844 Z M 258.25 170.417969 C 254.867188 167.550781 250.820312 164.945312 246.257812 162.636719 C 247.433594 156.492188 248.085938 150.417969 248.167969 144.578125 C 252.910156 146.988281 257.0625 149.730469 260.515625 152.734375 C 260.515625 158.160156 259.851562 163.746094 258.492188 169.457031 C 258.421875 169.777344 258.332031 170.097656 258.25 170.417969 Z M 218.488281 97.972656 C 220.921875 100.15625 222.992188 102.839844 224.71875 106.003906 C 219.757812 104.632812 214.453125 103.570312 208.917969 102.828125 C 208.105469 99.914062 207.089844 97.367188 205.832031 95.347656 C 210.253906 95.964844 214.496094 96.84375 218.488281 97.972656 Z M 161.941406 98.007812 C 165.929688 96.878906 170.195312 95.984375 174.628906 95.359375 C 173.371094 97.378906 172.367188 99.925781 171.554688 102.828125 C 166.019531 103.582031 160.714844 104.644531 155.753906 106.003906 C 157.457031 102.875 159.515625 100.191406 161.941406 98.007812 Z M 121.96875 169.457031 C 120.621094 163.746094 119.957031 158.148438 119.945312 152.722656 C 123.363281 149.765625 127.515625 147.035156 132.292969 144.613281 C 132.386719 150.40625 133.027344 156.414062 134.191406 162.511719 C 129.617188 164.808594 125.570312 167.390625 122.175781 170.246094 C 122.109375 169.984375 122.039062 169.722656 121.96875 169.457031 Z M 111.886719 190.554688 C 111.886719 187.414062 112.652344 184.351562 114.105469 181.429688 C 114.960938 184.308594 116.015625 187.164062 117.226562 189.972656 C 115.808594 192.589844 114.972656 195.285156 114.710938 198.027344 C 113.679688 195.878906 112.742188 193.640625 111.910156 191.296875 C 111.898438 191.058594 111.886719 190.808594 111.886719 190.554688 Z M 116.117188 204.550781 C 115.875 203.636719 115.714844 202.722656 115.625 201.796875 C 116.722656 203.816406 117.890625 205.761719 119.125 207.597656 C 119.125 207.609375 119.125 207.621094 119.125 207.632812 C 119.125 208.945312 119.273438 210.25 119.558594 211.539062 C 118.289062 209.265625 117.144531 206.9375 116.117188 204.550781 Z M 125.332031 220.394531 C 125.273438 220.335938 125.21875 220.289062 125.148438 220.265625 C 123.9375 218.621094 122.804688 216.929688 121.730469 215.207031 C 120.792969 213.160156 120.234375 211.070312 120.074219 208.957031 C 123.683594 214.097656 127.789062 218.53125 132.109375 222.324219 C 132.121094 224.414062 132.578125 226.480469 133.460938 228.492188 C 130.464844 226.117188 127.699219 223.429688 125.332031 220.394531 Z M 139.417969 235.195312 C 138.238281 234.078125 137.210938 232.921875 136.351562 231.734375 C 140.753906 234.71875 145.511719 237.105469 150.324219 238.953125 C 150.988281 240.199219 151.878906 241.398438 153.011719 242.574219 C 149.328125 241.308594 145.796875 239.652344 142.605469 237.664062 C 141.53125 236.863281 140.46875 236.054688 139.417969 235.195312 Z M 241.042969 235.195312 C 239.96875 236.066406 238.871094 236.910156 237.761719 237.722656 C 234.585938 239.707031 231.050781 241.34375 227.394531 242.597656 C 228.515625 241.445312 229.417969 240.222656 230.101562 238.964844 C 234.917969 237.128906 239.671875 234.738281 244.074219 231.757812 C 243.226562 232.933594 242.210938 234.089844 241.042969 235.195312 Z M 255.300781 220.265625 C 255.242188 220.289062 255.1875 220.335938 255.140625 220.394531 C 252.761719 223.441406 249.984375 226.125 246.988281 228.515625 C 247.871094 226.492188 248.328125 224.425781 248.339844 222.335938 C 252.660156 218.542969 256.765625 214.109375 260.378906 208.992188 C 260.21875 211.105469 259.644531 213.183594 258.71875 215.230469 C 257.644531 216.941406 256.511719 218.621094 255.300781 220.265625 Z M 260.890625 211.539062 C 261.175781 210.261719 261.328125 208.945312 261.328125 207.632812 C 262.5625 205.78125 263.726562 203.863281 264.824219 201.832031 C 264.734375 202.746094 264.574219 203.648438 264.34375 204.5625 C 263.304688 206.9375 262.160156 209.277344 260.890625 211.539062 Z M 263.933594 139.554688 C 262.433594 137.609375 260.628906 135.75 258.582031 133.96875 C 257.875 131.761719 257.039062 129.59375 256.078125 127.480469 C 257.554688 128.894531 258.867188 130.359375 259.988281 131.886719 C 261.453125 134.367188 262.753906 136.9375 263.933594 139.554688 Z M 239.191406 111.269531 C 235.144531 109.363281 230.6875 107.707031 225.90625 106.335938 C 224.351562 103.320312 222.5 100.714844 220.339844 98.5 C 223.515625 99.480469 226.523438 100.636719 229.3125 101.925781 C 230.398438 102.53125 231.476562 103.148438 232.539062 103.8125 C 235.054688 105.867188 237.28125 108.367188 239.191406 111.269531 Z M 202.445312 92.777344 C 202.960938 93.1875 203.441406 93.65625 203.910156 94.203125 C 199.621094 93.691406 195.199219 93.414062 190.671875 93.394531 L 190.671875 91.875 C 194.648438 91.886719 198.582031 92.195312 202.445312 92.777344 Z M 189.777344 91.863281 L 189.777344 93.394531 C 185.273438 93.414062 180.839844 93.703125 176.550781 94.214844 C 177.007812 93.667969 177.5 93.1875 178.015625 92.777344 C 181.855469 92.195312 185.789062 91.886719 189.777344 91.863281 Z M 120.53125 131.84375 C 121.640625 130.347656 122.917969 128.894531 124.371094 127.511719 C 123.398438 129.648438 122.566406 131.84375 121.855469 134.082031 C 119.773438 135.875 117.980469 137.769531 116.484375 139.714844 C 117.695312 137.003906 119.042969 134.378906 120.53125 131.84375 Z M 109.519531 170.988281 C 109.667969 168.738281 110.195312 166.535156 111.085938 164.386719 C 111.382812 169.675781 112.285156 174.953125 113.738281 180.148438 C 112.253906 182.878906 111.371094 185.691406 111.097656 188.578125 C 110.046875 183.347656 109.496094 177.96875 109.496094 172.519531 C 109.496094 172.003906 109.507812 171.492188 109.519531 170.988281 Z M 108.125 172.324219 C 108.125 172.382812 108.136719 172.429688 108.160156 172.484375 C 108.160156 172.496094 108.148438 172.507812 108.148438 172.519531 C 108.148438 194.417969 116.6875 215.011719 132.191406 230.5 C 147.695312 245.992188 168.296875 254.511719 190.226562 254.511719 C 235.453125 254.511719 272.257812 217.765625 272.300781 172.589844 C 272.335938 172.507812 272.359375 172.417969 272.359375 172.324219 C 272.359375 171.605469 272.3125 170.898438 272.246094 170.1875 C 271.660156 149.160156 263.210938 129.464844 248.257812 114.535156 C 232.753906 99.046875 212.152344 90.515625 190.226562 90.515625 C 168.308594 90.515625 147.695312 99.046875 132.191406 114.535156 C 117.144531 129.570312 108.683594 149.398438 108.203125 170.589844 C 108.148438 171.171875 108.125 171.742188 108.125 172.324219 " fill-opacity="1" fill-rule="nonzero"/></g><g clip-path="url(#b3f451a179)"><path fill="#ffffff" d="M 277.113281 188.488281 C 275.867188 188.589844 275.070312 189.425781 275.320312 190.339844 C 275.570312 191.265625 276.785156 191.925781 278.03125 191.824219 C 286.742188 191.09375 293.738281 189.78125 298.550781 187.90625 C 303.664062 185.917969 306.464844 183.269531 306.464844 179.96875 C 306.464844 173.113281 293.382812 165.164062 272.257812 157.863281 C 251.859375 150.816406 223.722656 144.144531 192.683594 139.542969 C 176.996094 137.222656 162.089844 135.644531 148.539062 134.777344 C 128.921875 133.523438 112.113281 133.773438 99.984375 135.417969 C 87.109375 137.164062 79.257812 140.605469 78.445312 145.652344 C 78.398438 145.949219 78.375 146.246094 78.375 146.53125 C 78.375 149.375 80.503906 152.347656 84.4375 155.351562 C 88.21875 158.21875 93.730469 161.175781 100.660156 164.101562 C 101.800781 164.582031 103.1875 164.339844 103.746094 163.542969 C 104.304688 162.753906 103.835938 161.726562 102.695312 161.234375 C 96.1875 158.492188 91.054688 155.75 87.636719 153.144531 C 84.617188 150.851562 82.984375 148.714844 82.984375 146.828125 C 82.984375 146.648438 83.007812 146.476562 83.03125 146.328125 C 83.601562 142.773438 90.222656 140.203125 101.183594 138.71875 C 112.890625 137.121094 129.289062 136.902344 148.539062 138.125 C 161.941406 138.980469 176.6875 140.546875 192.15625 142.84375 C 222.820312 147.378906 250.554688 153.945312 270.597656 160.867188 C 289.898438 167.539062 301.84375 174.335938 301.84375 179.671875 C 301.84375 181.714844 299.820312 183.472656 296.117188 184.914062 C 291.761719 186.605469 285.277344 187.804688 277.113281 188.488281 " fill-opacity="1" fill-rule="nonzero"/></g><g clip-path="url(#4e5cf7150d)"><path fill="#ffffff" d="M 274.976562 88.640625 L 275.089844 88.640625 C 275.867188 98.863281 284.03125 107.03125 294.265625 107.796875 L 294.265625 107.921875 C 284.03125 108.6875 275.867188 116.855469 275.089844 127.078125 L 274.976562 127.078125 C 274.199219 116.855469 266.035156 108.6875 255.804688 107.921875 L 255.804688 107.796875 C 266.035156 107.03125 274.199219 98.863281 274.976562 88.640625 " fill-opacity="1" fill-rule="evenodd"/></g><path fill="#ffffff" d="M 294.574219 123.914062 L 294.628906 123.914062 C 294.949219 128.265625 298.425781 131.738281 302.769531 132.058594 L 302.769531 132.117188 C 298.425781 132.4375 294.949219 135.910156 294.628906 140.25 L 294.574219 140.25 C 294.253906 135.910156 290.777344 132.4375 286.421875 132.117188 L 286.421875 132.058594 C 290.777344 131.738281 294.253906 128.265625 294.574219 123.914062 " fill-opacity="1" fill-rule="evenodd"/><g clip-path="url(#87c73f6eac)"><path fill="#ffffff" d="M 86.785156 242.925781 C 114.808594 255.484375 145.636719 262.855469 172.777344 265.660156 C 210.855469 269.589844 251.542969 266.234375 285.023438 252.085938 C 309.464844 241.734375 333.398438 223.769531 338.925781 197.261719 C 339.699219 193.601562 340.074219 189.824219 340.074219 186.007812 C 340.074219 161.621094 325.15625 140.34375 305.246094 123.4375 C 316.824219 137.9375 324.40625 154.601562 324.40625 172.765625 C 324.40625 177.023438 323.964844 181.21875 323.125 185.324219 C 317.222656 213.617188 292.515625 232.820312 266.304688 243.921875 C 232.492188 258.222656 191.5625 261.6875 153.0625 257.691406 C 131.558594 255.484375 108.730469 250.652344 86.785156 242.925781 " fill-opacity="1" fill-rule="evenodd"/></g><g clip-path="url(#d78dfc3a46)"><path fill="#ffffff" d="M 45.835938 210.484375 L 46.121094 210.351562 L 46.386719 210.195312 C 63.667969 241.515625 70.167969 240.917969 99.492188 224.761719 L 99.78125 225.269531 C 70.453125 241.449219 66.476562 246.589844 83.78125 277.910156 L 83.25 278.21875 C 65.945312 246.898438 59.449219 247.496094 30.121094 263.652344 L 29.832031 263.121094 C 59.160156 246.964844 63.136719 241.824219 45.835938 210.484375 " fill-opacity="1" fill-rule="evenodd"/></g><path fill="#ffffff" d="M 89.726562 258.949219 C 120.53125 273.871094 154.609375 283.09375 184.753906 287.113281 C 227.03125 292.761719 272.46875 290.355469 310.238281 275.703125 C 337.820312 264.976562 365.070312 245.753906 372.097656 216.421875 C 373.070312 212.359375 373.621094 208.167969 373.753906 203.90625 C 374.550781 176.761719 358.636719 152.550781 337.023438 133.082031 C 349.445312 149.613281 357.335938 168.417969 356.714844 188.65625 C 356.582031 193.378906 355.964844 198.058594 354.882812 202.582031 C 347.390625 233.898438 319.234375 254.492188 289.664062 265.992188 C 251.519531 280.800781 205.816406 283.316406 163.074219 277.597656 C 139.183594 274.421875 113.902344 268.285156 89.726562 258.949219 " fill-opacity="1" fill-rule="evenodd"/><g clip-path="url(#cacf07108f)"><g clip-path="url(#b139c07a05)"><g clip-path="url(#93764e4129)"><g clip-path="url(#2eef85a9eb)"><path fill="#ffffff" d="M 291.429688 97.226562 C 262.4375 87.109375 231.089844 82.398438 203.8125 81.921875 C 165.539062 81.257812 125.285156 88.078125 93.136719 105.03125 C 69.667969 117.429688 47.351562 137.375 44.113281 164.257812 C 43.652344 167.972656 43.601562 171.765625 43.929688 175.570312 C 46.011719 199.867188 62.691406 219.792969 83.972656 234.933594 C 71.199219 221.476562 62.222656 205.523438 60.671875 187.425781 C 60.308594 183.179688 60.390625 178.964844 60.875 174.804688 C 64.339844 146.109375 87.316406 124.867188 112.484375 111.570312 C 144.953125 94.433594 185.433594 87.484375 224.132812 88.175781 C 245.746094 88.539062 268.90625 91.40625 291.429688 97.226562 " fill-opacity="1" fill-rule="evenodd"/></g></g></g></g><g clip-path="url(#91ced918ea)"><g clip-path="url(#c7a8b70381)"><g clip-path="url(#f3222f639b)"><g clip-path="url(#444043643f)"><path fill="#ffffff" d="M 335.003906 126.054688 L 334.726562 126.210938 L 334.476562 126.386719 C 314.582031 96.660156 308.160156 97.808594 280.320312 116.410156 L 279.992188 115.929688 C 307.828125 97.304688 311.355469 91.84375 291.4375 62.117188 L 291.941406 61.765625 C 311.855469 91.488281 318.277344 90.339844 346.117188 71.742188 L 346.449219 72.242188 C 318.609375 90.84375 315.085938 96.308594 335.003906 126.054688 " fill-opacity="1" fill-rule="evenodd"/></g></g></g></g><g clip-path="url(#bf49313ec2)"><g clip-path="url(#18917b61fa)"><g clip-path="url(#b0f68f4145)"><g clip-path="url(#5084aeac0e)"><path fill="#ffffff" d="M 287.132812 81.515625 C 255.164062 69.28125 220.421875 63 190.046875 61.570312 C 147.441406 59.550781 102.375 65.828125 65.996094 83.65625 C 39.429688 96.699219 13.921875 118.175781 9.425781 148 C 8.804688 152.132812 8.609375 156.355469 8.84375 160.613281 C 10.367188 187.726562 28.289062 210.492188 51.488281 228.039062 C 37.699219 212.628906 28.234375 194.570312 27.121094 174.351562 C 26.851562 169.632812 27.066406 164.917969 27.761719 160.320312 C 32.550781 128.476562 58.84375 105.554688 87.324219 91.574219 C 124.066406 73.5625 169.386719 67.152344 212.460938 69.195312 C 236.535156 70.324219 262.246094 74.277344 287.132812 81.515625 " fill-opacity="1" fill-rule="evenodd"/></g></g></g></g><g clip-path="url(#cd844cf771)"><g clip-path="url(#3d608c694c)"><g clip-path="url(#787d5cda9a)"><g clip-path="url(#bb6242e9e2)"><path fill="#ffffff" d="M 291.429688 303.746094 C 295.984375 298.886719 301.535156 294.832031 306.730469 291.996094 C 314.019531 288.023438 322.441406 285.285156 330.324219 285.308594 C 336.082031 285.332031 342.375 286.921875 345.699219 291.757812 C 346.160156 292.425781 346.550781 293.148438 346.871094 293.914062 C 348.914062 298.789062 347.710938 304.296875 345.140625 309.34375 C 346.246094 305.472656 346.367188 301.507812 344.84375 297.875 C 344.488281 297.023438 344.046875 296.222656 343.535156 295.46875 C 339.988281 290.304688 333.4375 288.535156 327.261719 288.511719 C 319.300781 288.484375 310.820312 291.21875 303.453125 295.242188 C 299.335938 297.484375 295.175781 300.363281 291.429688 303.746094 " fill-opacity="1" fill-rule="evenodd"/></g></g></g></g><g clip-path="url(#df9c716f39)"><g clip-path="url(#a47f988a57)"><g clip-path="url(#6ddeed6cff)"><g clip-path="url(#6437e8877b)"><path fill="#ffffff" d="M 285.953125 313.667969 L 286.023438 313.667969 L 286.089844 313.675781 C 286.925781 305.964844 288.273438 305.542969 295.492188 306.316406 L 295.507812 306.191406 C 288.285156 305.410156 287.0625 304.714844 287.898438 297.003906 L 287.769531 296.984375 C 286.929688 304.699219 285.578125 305.125 278.359375 304.347656 L 278.34375 304.480469 C 285.566406 305.253906 286.792969 305.949219 285.953125 313.667969 " fill-opacity="1" fill-rule="evenodd"/></g></g></g></g><g clip-path="url(#4144a9e535)"><g clip-path="url(#6071da33c4)"><g clip-path="url(#18ab9b5740)"><g clip-path="url(#fe50a4ea1a)"><path fill="#ffffff" d="M 290.675781 300.296875 C 295.589844 294.730469 301.636719 290.03125 307.332031 286.703125 C 315.316406 282.03125 324.609375 278.707031 333.390625 278.472656 C 339.808594 278.308594 346.867188 279.871094 350.730469 285.148438 C 351.265625 285.878906 351.726562 286.671875 352.109375 287.511719 C 354.542969 292.875 353.386719 299.050781 350.691406 304.753906 C 351.792969 300.40625 351.796875 295.984375 349.976562 291.988281 C 349.554688 291.054688 349.039062 290.171875 348.445312 289.359375 C 344.324219 283.722656 336.964844 281.960938 330.089844 282.140625 C 321.214844 282.375 311.863281 285.699219 303.789062 290.421875 C 299.277344 293.058594 294.730469 296.402344 290.675781 300.296875 " fill-opacity="1" fill-rule="evenodd"/></g></g></g></g></svg>