<svg xmlns="http://www.w3.org/2000/svg" xmlns:xlink="http://www.w3.org/1999/xlink" width="500" zoomAndPan="magnify" viewBox="0 0 375 374.999991" height="500" preserveAspectRatio="xMidYMid meet" version="1.0"><defs><clipPath id="6e7c49bd5b"><path d="M 100.78125 144 L 282 144 L 282 191 L 100.78125 191 Z M 100.78125 144 " clip-rule="nonzero"/></clipPath><clipPath id="884a0667e4"><path d="M 241 108.570312 L 273 108.570312 L 273 140 L 241 140 Z M 241 108.570312 " clip-rule="nonzero"/></clipPath><clipPath id="845c8c37ea"><path d="M 107 136.402344 L 309 136.402344 L 309 251 L 107 251 Z M 107 136.402344 " clip-rule="nonzero"/></clipPath><clipPath id="355596d50c"><path d="M 73 103 L 271 103 L 271 226 L 73 226 Z M 73 103 " clip-rule="nonzero"/></clipPath><clipPath id="ca0668bf60"><path d="M 38.441406 95.683594 L 311.941406 72.242188 L 323.46875 206.75 L 49.972656 230.191406 Z M 38.441406 95.683594 " clip-rule="nonzero"/></clipPath><clipPath id="3a1e7655c3"><path d="M 323.8125 206.636719 L 50.316406 230.078125 L 38.785156 95.574219 L 312.285156 72.132812 Z M 323.8125 206.636719 " clip-rule="nonzero"/></clipPath><clipPath id="1583e3d97a"><path d="M 261 87 L 314 87 L 314 139 L 261 139 Z M 261 87 " clip-rule="nonzero"/></clipPath><clipPath id="b71dca859b"><path d="M 38.441406 95.683594 L 311.941406 72.242188 L 323.46875 206.75 L 49.972656 230.191406 Z M 38.441406 95.683594 " clip-rule="nonzero"/></clipPath><clipPath id="dd874fac08"><path d="M 323.8125 206.636719 L 50.316406 230.078125 L 38.785156 95.574219 L 312.285156 72.132812 Z M 323.8125 206.636719 " clip-rule="nonzero"/></clipPath><clipPath id="fa31e0e449"><path d="M 45 86 L 267 86 L 267 220 L 45 220 Z M 45 86 " clip-rule="nonzero"/></clipPath><clipPath id="3eb40144d2"><path d="M 38.441406 95.683594 L 311.941406 72.242188 L 323.46875 206.75 L 49.972656 230.191406 Z M 38.441406 95.683594 " clip-rule="nonzero"/></clipPath><clipPath id="e7e89cc2c7"><path d="M 323.8125 206.636719 L 50.316406 230.078125 L 38.785156 95.574219 L 312.285156 72.132812 Z M 323.8125 206.636719 " clip-rule="nonzero"/></clipPath><clipPath id="4c11d2718f"><path d="M 270 265 L 315 265 L 315 285 L 270 285 Z M 270 265 " clip-rule="nonzero"/></clipPath><clipPath id="6863d48e9d"><path d="M 257.660156 275.847656 L 312.3125 252.964844 L 323.609375 279.945312 L 268.957031 302.828125 Z M 257.660156 275.847656 " clip-rule="nonzero"/></clipPath><clipPath id="90f5dd39cc"><path d="M 268.9375 302.785156 L 323.59375 279.902344 L 312.296875 252.921875 L 257.640625 275.804688 Z M 268.9375 302.785156 " clip-rule="nonzero"/></clipPath><clipPath id="b7446d918b"><path d="M 259 274 L 274 274 L 274 288 L 259 288 Z M 259 274 " clip-rule="nonzero"/></clipPath><clipPath id="2eca744372"><path d="M 257.660156 275.847656 L 312.3125 252.964844 L 323.609375 279.945312 L 268.957031 302.828125 Z M 257.660156 275.847656 " clip-rule="nonzero"/></clipPath><clipPath id="40d3d8b23f"><path d="M 268.9375 302.785156 L 323.59375 279.902344 L 312.296875 252.921875 L 257.640625 275.804688 Z M 268.9375 302.785156 " clip-rule="nonzero"/></clipPath><clipPath id="4da3d63d90"><path d="M 269 259 L 320 259 L 320 281 L 269 281 Z M 269 259 " clip-rule="nonzero"/></clipPath><clipPath id="7ef1af7d92"><path d="M 257.660156 275.847656 L 312.3125 252.964844 L 323.609375 279.945312 L 268.957031 302.828125 Z M 257.660156 275.847656 " clip-rule="nonzero"/></clipPath><clipPath id="e872a4f615"><path d="M 268.9375 302.785156 L 323.59375 279.902344 L 312.296875 252.921875 L 257.640625 275.804688 Z M 268.9375 302.785156 " clip-rule="nonzero"/></clipPath></defs><path fill="#000000" d="M 126.710938 163.03125 C 126.65625 164.292969 126.617188 165.566406 126.636719 166.835938 C 126.363281 167.355469 126.109375 167.882812 125.882812 168.410156 C 126.082031 166.59375 126.363281 164.792969 126.710938 163.03125 Z M 152.660156 123.210938 C 151.503906 124.503906 150.460938 125.9375 149.507812 127.5 C 147.335938 128.589844 145.339844 129.769531 143.523438 131.042969 C 146.308594 128.164062 149.371094 125.527344 152.660156 123.210938 Z M 235.703125 131.03125 C 233.886719 129.761719 231.882812 128.570312 229.710938 127.492188 C 228.757812 125.910156 227.695312 124.464844 226.53125 123.167969 C 229.511719 125.265625 232.335938 127.625 234.960938 130.25 C 235.214844 130.496094 235.460938 130.769531 235.703125 131.03125 Z M 252.589844 166.828125 C 252.617188 165.539062 252.582031 164.265625 252.515625 162.996094 C 252.863281 164.757812 253.125 166.527344 253.324219 168.328125 C 253.109375 167.828125 252.863281 167.320312 252.589844 166.828125 Z M 252.335938 189.007812 C 252.199219 186.585938 251.519531 184.222656 250.320312 181.925781 C 251.519531 177.699219 252.253906 173.40625 252.5 169.109375 C 253.144531 170.652344 253.535156 172.222656 253.707031 173.8125 C 253.714844 174.402344 253.742188 175.003906 253.742188 175.601562 C 253.742188 180.164062 253.261719 184.648438 252.335938 189.007812 Z M 233.515625 222.324219 C 233.671875 222.097656 233.804688 221.863281 233.941406 221.625 C 234.453125 221.246094 234.941406 220.84375 235.441406 220.445312 C 235.277344 220.609375 235.125 220.789062 234.960938 220.953125 C 234.488281 221.425781 233.996094 221.871094 233.515625 222.324219 Z M 143.75 220.410156 C 144.25 220.816406 144.746094 221.226562 145.257812 221.609375 C 145.394531 221.84375 145.539062 222.082031 145.691406 222.316406 C 145.210938 221.863281 144.730469 221.417969 144.257812 220.953125 C 144.085938 220.773438 143.921875 220.589844 143.75 220.410156 Z M 133.078125 160.488281 C 133.128906 164.667969 133.65625 168.953125 134.691406 173.332031 C 134.773438 173.660156 134.855469 173.984375 134.9375 174.3125 C 134.355469 174.820312 133.804688 175.339844 133.277344 175.867188 C 131.675781 177.464844 130.359375 179.117188 129.34375 180.796875 C 128.191406 176.484375 127.535156 172.105469 127.390625 167.71875 C 128.6875 165.175781 130.605469 162.75 133.078125 160.488281 Z M 129.535156 153.148438 C 130.777344 150.75 132.585938 148.480469 134.882812 146.375 C 133.730469 150.441406 133.121094 154.703125 133.066406 159.089844 C 132.441406 159.636719 131.839844 160.1875 131.277344 160.742188 C 129.699219 162.332031 128.398438 163.949219 127.355469 165.613281 C 127.363281 163.105469 127.542969 160.605469 127.890625 158.128906 C 128.371094 156.4375 128.925781 154.777344 129.535156 153.148438 Z M 139.316406 135.855469 C 138.878906 136.609375 138.460938 137.382812 138.070312 138.164062 C 137.582031 138.589844 137.109375 139.007812 136.664062 139.453125 C 137.507812 138.21875 138.390625 137.007812 139.316406 135.855469 Z M 147.109375 132.25 C 144.230469 133.710938 141.667969 135.3125 139.460938 137.027344 C 140.160156 135.746094 140.933594 134.492188 141.757812 133.265625 C 143.8125 131.585938 146.191406 130.035156 148.835938 128.644531 C 148.207031 129.789062 147.628906 130.988281 147.109375 132.25 Z M 160.851562 123.847656 C 160.308594 124.984375 159.816406 126.199219 159.378906 127.480469 C 157.546875 128.015625 155.765625 128.609375 154.039062 129.242188 C 151.933594 130.035156 149.960938 130.867188 148.109375 131.769531 C 148.679688 130.453125 149.316406 129.207031 150.015625 128.035156 C 153.277344 126.417969 156.917969 125.011719 160.851562 123.847656 Z M 155.867188 121.078125 C 156.800781 120.496094 157.746094 119.941406 158.707031 119.414062 C 160.859375 118.425781 163.195312 117.542969 165.664062 116.789062 C 163.957031 118.535156 162.496094 120.597656 161.269531 122.984375 C 157.472656 124.085938 153.921875 125.402344 150.714844 126.910156 C 152.195312 124.65625 153.921875 122.703125 155.867188 121.078125 Z M 166.78125 115.71875 C 166.621094 115.753906 166.457031 115.800781 166.292969 115.855469 C 166.492188 115.773438 166.691406 115.699219 166.890625 115.628906 C 166.855469 115.65625 166.820312 115.683594 166.78125 115.71875 Z M 177.765625 113.464844 C 174.476562 113.894531 171.304688 114.511719 168.300781 115.300781 C 168.316406 115.238281 168.328125 115.164062 168.316406 115.101562 C 171.640625 113.929688 175.085938 113.019531 178.636719 112.414062 C 178.328125 112.730469 178.035156 113.085938 177.765625 113.464844 Z M 210.925781 115.28125 C 207.921875 114.492188 204.75 113.875 201.453125 113.449219 C 201.191406 113.074219 200.90625 112.730469 200.609375 112.414062 C 204.125 113.019531 207.574219 113.902344 210.917969 115.074219 C 210.898438 115.144531 210.898438 115.210938 210.925781 115.28125 Z M 212.40625 115.683594 C 212.378906 115.65625 212.34375 115.628906 212.308594 115.589844 C 212.507812 115.671875 212.714844 115.746094 212.914062 115.828125 C 212.753906 115.78125 212.578125 115.726562 212.40625 115.683594 Z M 231.117188 131.75 C 229.265625 130.859375 227.292969 130.015625 225.195312 129.234375 C 223.460938 128.597656 221.679688 128.007812 219.855469 127.472656 C 219.417969 126.191406 218.917969 124.984375 218.375 123.828125 C 222.308594 125 225.949219 126.398438 229.203125 128.027344 C 229.910156 129.199219 230.546875 130.441406 231.117188 131.75 Z M 237.449219 133.238281 C 238.285156 134.464844 239.054688 135.71875 239.757812 137 C 237.546875 135.292969 234.996094 133.695312 232.117188 132.242188 C 231.597656 130.976562 231.019531 129.769531 230.382812 128.625 C 233.027344 130.023438 235.394531 131.558594 237.449219 133.238281 Z M 241.136719 138.136719 C 240.746094 137.335938 240.320312 136.554688 239.875 135.773438 C 240.828125 136.980469 241.746094 138.207031 242.609375 139.460938 C 242.136719 139.015625 241.644531 138.5625 241.136719 138.136719 Z M 247.96875 160.742188 C 247.394531 160.179688 246.796875 159.636719 246.167969 159.082031 C 246.105469 154.648438 245.488281 150.351562 244.316406 146.246094 C 246.613281 148.371094 248.421875 150.660156 249.683594 153.085938 C 250.308594 154.757812 250.863281 156.457031 251.347656 158.183594 C 251.691406 160.644531 251.863281 163.113281 251.871094 165.601562 C 250.835938 163.941406 249.539062 162.324219 247.96875 160.742188 Z M 245.75 175.867188 C 245.277344 175.386719 244.769531 174.921875 244.253906 174.46875 C 244.351562 174.085938 244.453125 173.703125 244.535156 173.332031 C 245.578125 168.953125 246.105469 164.667969 246.148438 160.496094 C 246.515625 160.824219 246.867188 161.160156 247.203125 161.507812 C 249.210938 163.503906 250.753906 165.585938 251.84375 167.710938 C 251.699219 172.167969 251.019531 176.636719 249.820312 181.035156 C 248.785156 179.261719 247.421875 177.539062 245.75 175.867188 Z M 247.175781 188.71875 C 246.195312 187.066406 244.914062 185.46875 243.363281 183.90625 C 242.835938 183.386719 242.289062 182.886719 241.71875 182.378906 C 242.625 180.007812 243.417969 177.628906 244.0625 175.238281 C 244.460938 175.613281 244.859375 175.984375 245.25 176.367188 C 247.078125 178.191406 248.511719 180.082031 249.554688 182.007812 C 248.902344 184.269531 248.101562 186.511719 247.175781 188.71875 Z M 251.601562 191.207031 C 250.992188 192.84375 250.328125 194.40625 249.609375 195.914062 C 249.402344 193.722656 248.738281 191.578125 247.613281 189.492188 C 248.546875 187.328125 249.355469 185.148438 250.027344 182.933594 C 251.109375 185.210938 251.65625 187.554688 251.65625 189.945312 C 251.65625 190.363281 251.636719 190.789062 251.601562 191.207031 Z M 249.675781 197.394531 C 250 196.757812 250.308594 196.101562 250.621094 195.441406 C 250.308594 196.375 249.992188 197.292969 249.648438 198.21875 C 249.664062 197.9375 249.675781 197.675781 249.675781 197.394531 Z M 221.734375 227.511719 C 222.171875 226.476562 222.398438 225.421875 222.433594 224.332031 C 226.605469 222.164062 230.9375 219.375 235.050781 215.859375 C 234.933594 217.648438 234.371094 219.417969 233.40625 221.136719 C 229.792969 223.796875 225.796875 225.90625 221.734375 227.511719 Z M 215.511719 234.289062 C 215.457031 234.304688 215.40625 234.332031 215.351562 234.34375 C 216.285156 233.742188 217.148438 233.125 217.921875 232.460938 C 219.238281 232.070312 220.546875 231.597656 221.816406 231.082031 C 219.773438 232.261719 217.675781 233.335938 215.511719 234.289062 Z M 161.234375 232.433594 C 161.976562 233.089844 162.8125 233.707031 163.722656 234.289062 C 163.703125 234.289062 163.6875 234.277344 163.667969 234.269531 C 161.523438 233.324219 159.417969 232.253906 157.382812 231.0625 C 158.636719 231.582031 159.925781 232.042969 161.234375 232.433594 Z M 144.175781 215.859375 C 148.289062 219.363281 152.621094 222.152344 156.792969 224.324219 C 156.820312 225.40625 157.046875 226.46875 157.472656 227.503906 C 153.421875 225.886719 149.425781 223.789062 145.808594 221.125 C 144.847656 219.410156 144.285156 217.640625 144.175781 215.859375 Z M 129.542969 197.367188 C 129.542969 197.648438 129.5625 197.917969 129.570312 198.210938 C 129.214844 197.265625 128.890625 196.320312 128.582031 195.367188 C 128.890625 196.046875 129.207031 196.722656 129.542969 197.367188 Z M 137.507812 182.371094 C 136.9375 182.878906 136.382812 183.378906 135.863281 183.90625 C 134.300781 185.457031 133.039062 187.066406 132.058594 188.699219 C 131.097656 186.421875 130.277344 184.105469 129.605469 181.761719 C 130.921875 179.410156 132.792969 177.175781 135.136719 175.085938 C 135.78125 177.519531 136.582031 179.953125 137.507812 182.371094 Z M 145.246094 168.398438 C 145.757812 170.953125 146.375 173.523438 147.101562 176.085938 C 143.675781 177.800781 140.640625 179.746094 138.089844 181.878906 C 137.164062 179.445312 136.375 177 135.738281 174.566406 C 138.378906 172.304688 141.578125 170.242188 145.246094 168.398438 Z M 144.867188 139.597656 C 144.121094 143.03125 143.675781 146.738281 143.59375 150.707031 C 143.574219 151.207031 143.585938 151.707031 143.585938 152.207031 C 139.871094 154.058594 136.574219 156.15625 133.804688 158.464844 C 133.921875 153.957031 134.621094 149.605469 135.910156 145.457031 C 138.425781 143.320312 141.441406 141.359375 144.867188 139.597656 Z M 145.074219 138.636719 C 141.742188 140.324219 138.796875 142.1875 136.308594 144.183594 C 136.972656 142.269531 137.753906 140.398438 138.664062 138.570312 C 140.949219 136.609375 143.675781 134.8125 146.753906 133.195312 C 146.101562 134.910156 145.527344 136.726562 145.074219 138.636719 Z M 157.753906 133.710938 C 155.148438 134.476562 152.640625 135.339844 150.28125 136.28125 C 148.761719 136.898438 147.308594 137.546875 145.917969 138.21875 C 146.410156 136.28125 147 134.429688 147.699219 132.703125 C 151.113281 130.988281 154.957031 129.496094 159.109375 128.261719 C 158.570312 129.960938 158.109375 131.777344 157.753906 133.710938 Z M 173.695312 125.148438 C 173.414062 126.855469 173.175781 128.644531 173.003906 130.488281 C 167.945312 131.1875 163.078125 132.1875 158.519531 133.484375 C 158.898438 131.53125 159.371094 129.714844 159.945312 128.015625 C 164.230469 126.78125 168.84375 125.820312 173.695312 125.148438 Z M 174.566406 120.933594 C 174.285156 122.039062 174.039062 123.203125 173.8125 124.429688 C 169.082031 125.074219 164.511719 126.007812 160.214844 127.226562 C 160.679688 125.9375 161.1875 124.71875 161.761719 123.574219 C 165.765625 122.441406 170.070312 121.550781 174.566406 120.933594 Z M 189.253906 119.214844 C 184.539062 119.226562 179.917969 119.523438 175.492188 120.085938 C 176.191406 117.679688 177.074219 115.65625 178.128906 114.136719 C 181.734375 113.664062 185.457031 113.421875 189.253906 113.402344 Z M 203.742188 120.085938 C 199.308594 119.523438 194.6875 119.226562 189.964844 119.214844 L 189.964844 113.402344 C 193.777344 113.410156 197.5 113.65625 201.082031 114.109375 C 202.152344 115.636719 203.023438 117.664062 203.742188 120.085938 Z M 205.414062 124.421875 C 205.195312 123.203125 204.949219 122.03125 204.660156 120.921875 C 209.164062 121.539062 213.460938 122.429688 217.464844 123.566406 C 218.039062 124.710938 218.554688 125.9375 219.019531 127.226562 C 214.714844 126 210.15625 125.066406 205.414062 124.421875 Z M 220.707031 133.457031 C 216.1875 132.175781 211.328125 131.167969 206.230469 130.46875 C 206.050781 128.625 205.820312 126.84375 205.53125 125.148438 C 210.390625 125.808594 215.003906 126.78125 219.292969 128.007812 C 219.855469 129.707031 220.328125 131.515625 220.707031 133.457031 Z M 233.308594 138.171875 C 229.738281 136.445312 225.769531 134.9375 221.472656 133.683594 C 221.109375 131.75 220.664062 129.953125 220.117188 128.253906 C 224.277344 129.496094 228.113281 130.976562 231.527344 132.6875 C 232.226562 134.410156 232.816406 136.246094 233.308594 138.171875 Z M 234.152344 138.582031 C 233.6875 136.683594 233.125 134.882812 232.472656 133.183594 C 235.550781 134.792969 238.265625 136.589844 240.554688 138.554688 C 241.453125 140.351562 242.246094 142.214844 242.898438 144.113281 C 240.390625 142.105469 237.449219 140.242188 234.152344 138.582031 Z M 235.652344 152.195312 C 235.652344 151.707031 235.652344 151.207031 235.640625 150.707031 C 235.550781 146.691406 235.105469 142.929688 234.34375 139.460938 C 237.757812 141.214844 240.773438 143.1875 243.28125 145.328125 C 244.589844 149.527344 245.316406 153.914062 245.433594 158.453125 C 242.652344 156.15625 239.367188 154.058594 235.652344 152.195312 Z M 232.125 176.085938 C 232.851562 173.550781 233.460938 171.015625 233.960938 168.5 C 237.640625 170.363281 240.828125 172.441406 243.453125 174.710938 C 242.824219 177.101562 242.054688 179.507812 241.144531 181.886719 C 238.585938 179.746094 235.550781 177.808594 232.125 176.085938 Z M 238.058594 188.9375 C 235.675781 186.949219 232.863281 185.140625 229.683594 183.542969 C 230.519531 181.296875 231.261719 179.046875 231.925781 176.773438 C 235.339844 178.5 238.347656 180.445312 240.875 182.585938 C 240.039062 184.722656 239.101562 186.839844 238.058594 188.9375 Z M 243.824219 195.523438 C 242.890625 193.921875 241.664062 192.359375 240.148438 190.835938 C 239.664062 190.355469 239.136719 189.882812 238.613281 189.417969 C 239.664062 187.328125 240.601562 185.210938 241.445312 183.085938 C 241.925781 183.523438 242.40625 183.960938 242.851562 184.40625 C 244.515625 186.074219 245.832031 187.78125 246.824219 189.546875 C 245.933594 191.5625 244.941406 193.558594 243.824219 195.523438 Z M 206.847656 229.273438 C 206.792969 228.738281 206.648438 228.203125 206.414062 227.675781 C 211.570312 225.6875 216.394531 223.261719 220.835938 220.425781 C 221.398438 221.554688 221.691406 222.714844 221.71875 223.90625 C 216.140625 226.765625 210.871094 228.492188 206.847656 229.273438 Z M 206.585938 231.390625 C 206.75 230.945312 206.839844 230.472656 206.867188 230 C 210.871094 229.21875 216.113281 227.53125 221.699219 224.707031 C 221.617188 225.777344 221.316406 226.839844 220.808594 227.867188 C 215.914062 229.710938 210.988281 230.863281 206.585938 231.390625 Z M 202.96875 235.421875 C 203.597656 235.03125 204.160156 234.605469 204.648438 234.160156 C 208.320312 234.40625 212.296875 233.960938 216.222656 232.945312 C 215.148438 233.726562 213.933594 234.460938 212.617188 235.125 C 209.582031 235.859375 207.140625 235.878906 202.96875 235.421875 Z M 180.980469 237.449219 C 183.550781 238.195312 186.511719 238.621094 189.609375 238.621094 C 191.144531 238.621094 192.625 238.519531 194.03125 238.339844 C 194.503906 238.800781 194.996094 239.183594 195.496094 239.464844 C 193.550781 239.636719 191.589844 239.738281 189.609375 239.738281 C 185.265625 239.738281 180.988281 239.300781 176.820312 238.464844 C 178.273438 238.339844 179.617188 238.003906 180.980469 237.449219 Z M 174.605469 234.160156 C 175.09375 234.605469 175.65625 235.03125 176.285156 235.421875 C 172.085938 235.878906 169.644531 235.859375 166.59375 235.113281 C 165.277344 234.453125 164.066406 233.726562 162.996094 232.933594 C 166.929688 233.960938 170.925781 234.40625 174.605469 234.160156 Z M 172.359375 230 C 172.386719 230.464844 172.476562 230.9375 172.640625 231.390625 C 168.238281 230.855469 163.304688 229.710938 158.410156 227.855469 C 157.898438 226.832031 157.601562 225.777344 157.527344 224.707031 C 163.105469 227.519531 168.34375 229.21875 172.359375 230 Z M 158.382812 220.410156 C 162.832031 223.261719 167.65625 225.6875 172.8125 227.667969 C 172.570312 228.195312 172.421875 228.730469 172.371094 229.273438 C 168.34375 228.484375 163.085938 226.757812 157.5 223.898438 C 157.527344 222.699219 157.835938 221.535156 158.382812 220.410156 Z M 135 196.230469 C 133.957031 198.191406 133.347656 200.207031 133.183594 202.28125 C 132.140625 200.664062 131.160156 198.992188 130.261719 197.210938 C 130.289062 194.851562 130.878906 192.550781 131.976562 190.34375 C 132.875 192.34375 133.882812 194.304688 135 196.230469 Z M 140.625 189.410156 C 140.078125 189.882812 139.5625 190.355469 139.070312 190.835938 C 137.5625 192.351562 136.335938 193.914062 135.402344 195.511719 C 134.292969 193.550781 133.292969 191.5625 132.414062 189.546875 C 133.683594 187.265625 135.5 185.105469 137.78125 183.085938 C 138.625 185.203125 139.570312 187.320312 140.625 189.410156 Z M 149.554688 183.53125 C 146.363281 185.132812 143.550781 186.9375 141.167969 188.925781 C 140.125 186.839844 139.1875 184.714844 138.351562 182.585938 C 140.851562 180.480469 143.867188 178.535156 147.308594 176.800781 C 147.972656 179.054688 148.71875 181.308594 149.554688 183.53125 Z M 159.671875 172.035156 C 160.160156 174.332031 160.714844 176.65625 161.332031 178.992188 C 157.28125 180.164062 153.550781 181.578125 150.1875 183.214844 C 149.363281 180.980469 148.617188 178.738281 147.953125 176.484375 C 151.460938 174.777344 155.402344 173.277344 159.671875 172.035156 Z M 158.074219 163.441406 C 158.472656 166.019531 158.945312 168.644531 159.507812 171.304688 C 155.246094 172.542969 151.296875 174.03125 147.753906 175.765625 C 147.027344 173.195312 146.410156 170.625 145.902344 168.074219 C 149.554688 166.292969 153.640625 164.730469 158.074219 163.441406 Z M 156.699219 148.28125 C 156.792969 152.824219 157.21875 157.664062 157.964844 162.703125 C 153.539062 163.984375 149.445312 165.53125 145.757812 167.328125 C 144.828125 162.460938 144.339844 157.664062 144.285156 153.058594 C 148 151.222656 152.167969 149.625 156.699219 148.28125 Z M 156.945312 139.699219 C 156.738281 142.070312 156.65625 144.566406 156.671875 147.15625 C 152.203125 148.464844 148.046875 150.042969 144.292969 151.851562 C 144.292969 151.476562 144.292969 151.097656 144.304688 150.722656 C 144.394531 146.59375 144.867188 142.722656 145.683594 139.179688 C 149.269531 137.410156 153.269531 135.847656 157.609375 134.539062 C 157.328125 136.183594 157.101562 137.890625 156.945312 139.699219 Z M 172.46875 143.847656 C 167.164062 144.566406 162.105469 145.609375 157.382812 146.945312 C 157.363281 144.484375 157.453125 142.078125 157.65625 139.753906 C 157.816406 137.855469 158.0625 136.039062 158.363281 134.328125 C 162.914062 132.996094 167.808594 131.949219 172.933594 131.234375 C 172.578125 135.300781 172.441406 139.625 172.46875 143.847656 Z M 189.253906 130.070312 L 189.253906 142.722656 C 183.695312 142.742188 178.265625 143.105469 173.050781 143.777344 C 173.042969 139.269531 173.203125 135.011719 173.558594 131.140625 C 178.609375 130.46875 183.867188 130.097656 189.253906 130.070312 Z M 189.253906 124.085938 L 189.253906 129.363281 C 183.960938 129.378906 178.710938 129.734375 173.632812 130.398438 C 173.824219 128.527344 174.058594 126.726562 174.359375 125.066406 C 179.128906 124.4375 184.121094 124.101562 189.253906 124.085938 Z M 189.253906 123.367188 C 184.203125 123.382812 179.261719 123.710938 174.484375 124.328125 C 174.722656 123.101562 174.984375 121.929688 175.277344 120.839844 C 179.773438 120.25 184.457031 119.941406 189.253906 119.925781 Z M 189.964844 123.367188 L 189.964844 119.925781 C 194.769531 119.941406 199.453125 120.25 203.949219 120.832031 C 204.25 121.921875 204.503906 123.09375 204.742188 124.328125 C 199.964844 123.710938 195.011719 123.382812 189.964844 123.367188 Z M 189.964844 129.363281 L 189.964844 124.085938 C 195.105469 124.09375 200.097656 124.429688 204.878906 125.054688 C 205.167969 126.726562 205.402344 128.507812 205.59375 130.378906 C 200.589844 129.726562 195.339844 129.378906 189.964844 129.363281 Z M 206.175781 143.777344 C 200.972656 143.09375 195.53125 142.730469 189.964844 142.722656 L 189.964844 130.070312 C 195.375 130.089844 200.636719 130.453125 205.667969 131.105469 C 206.03125 134.984375 206.195312 139.261719 206.175781 143.777344 Z M 221.582031 139.753906 C 221.78125 142.078125 221.863281 144.484375 221.84375 146.945312 C 217.128906 145.609375 212.070312 144.566406 206.765625 143.847656 C 206.785156 139.605469 206.65625 135.273438 206.292969 131.1875 C 211.433594 131.894531 216.3125 132.921875 220.84375 134.222656 C 221.164062 135.972656 221.410156 137.816406 221.582031 139.753906 Z M 222.554688 147.15625 C 222.578125 144.566406 222.488281 142.070312 222.289062 139.699219 C 222.125 137.863281 221.898438 136.117188 221.609375 134.4375 C 225.949219 135.730469 229.945312 137.273438 233.523438 139.042969 C 234.351562 142.632812 234.832031 146.539062 234.933594 150.722656 C 234.941406 151.097656 234.933594 151.476562 234.941406 151.851562 C 231.191406 150.035156 227.03125 148.464844 222.554688 147.15625 Z M 221.253906 162.769531 C 222.015625 157.691406 222.445312 152.824219 222.535156 148.246094 C 227.039062 149.582031 231.207031 151.1875 234.941406 153.039062 C 234.898438 157.671875 234.386719 162.515625 233.460938 167.417969 C 229.78125 165.613281 225.675781 164.058594 221.253906 162.769531 Z M 219.71875 171.316406 C 220.28125 168.671875 220.746094 166.074219 221.144531 163.523438 C 221.679688 163.675781 222.226562 163.820312 222.761719 163.984375 C 226.59375 165.195312 230.117188 166.59375 233.308594 168.164062 C 232.808594 170.6875 232.199219 173.230469 231.480469 175.765625 C 227.929688 174.039062 223.988281 172.542969 219.71875 171.316406 Z M 217.902344 178.992188 C 218.519531 176.648438 219.074219 174.3125 219.566406 172.007812 C 223.824219 173.230469 227.757812 174.730469 231.28125 176.457031 C 230.617188 178.71875 229.875 180.980469 229.046875 183.222656 C 225.6875 181.589844 221.945312 180.164062 217.902344 178.992188 Z M 226.632812 189.183594 C 225.195312 192.414062 223.617188 195.539062 221.890625 198.546875 C 219.164062 197.210938 216.132812 196.058594 212.851562 195.105469 C 213.824219 192.480469 214.75 189.773438 215.613281 187.011719 C 216.375 184.550781 217.085938 182.105469 217.730469 179.691406 C 221.746094 180.84375 225.460938 182.25 228.800781 183.886719 C 228.121094 185.667969 227.414062 187.4375 226.632812 189.183594 Z M 229.136719 203.140625 C 227.25 201.570312 225.023438 200.136719 222.527344 198.863281 C 224.25 195.847656 225.839844 192.714844 227.285156 189.472656 C 228.058594 187.730469 228.773438 185.976562 229.4375 184.203125 C 232.589844 185.804688 235.378906 187.601562 237.722656 189.582031 C 235.351562 194.242188 232.472656 198.792969 229.136719 203.140625 Z M 230.910156 204.75 C 230.519531 204.359375 230.101562 203.976562 229.675781 203.605469 C 233.007812 199.265625 235.894531 194.722656 238.277344 190.0625 C 238.746094 190.488281 239.210938 190.90625 239.636719 191.34375 C 241.226562 192.933594 242.480469 194.558594 243.40625 196.230469 C 243.160156 196.65625 242.917969 197.085938 242.664062 197.503906 C 240.164062 201.542969 237.257812 205.296875 233.996094 208.730469 C 233.214844 207.355469 232.191406 206.039062 230.910156 204.75 Z M 218.957031 216.667969 C 218.710938 216.429688 218.445312 216.195312 218.183594 215.96875 C 222.082031 212.507812 225.769531 208.59375 229.101562 204.359375 C 229.148438 204.296875 229.191406 204.222656 229.238281 204.167969 C 229.648438 204.523438 230.039062 204.886719 230.402344 205.25 C 231.699219 206.546875 232.714844 207.894531 233.480469 209.265625 C 229.800781 213.050781 225.648438 216.441406 221.097656 219.402344 C 220.554688 218.464844 219.835938 217.558594 218.957031 216.667969 Z M 204.976562 225.648438 C 204.921875 225.59375 204.878906 225.558594 204.824219 225.515625 C 209.191406 223.125 213.523438 220.035156 217.648438 216.441406 C 217.929688 216.675781 218.203125 216.921875 218.457031 217.175781 C 219.300781 218.03125 219.980469 218.902344 220.507812 219.792969 C 216.058594 222.632812 211.234375 225.058594 206.078125 227.039062 C 205.785156 226.558594 205.421875 226.09375 204.976562 225.648438 Z M 161.558594 216.421875 C 165.691406 220.027344 170.035156 223.117188 174.402344 225.503906 C 174.347656 225.558594 174.292969 225.59375 174.25 225.648438 C 173.804688 226.09375 173.441406 226.558594 173.140625 227.039062 C 167.980469 225.058594 163.167969 222.625 158.71875 219.792969 C 159.40625 218.601562 160.371094 217.476562 161.558594 216.421875 Z M 149.980469 204.160156 C 150.035156 204.222656 150.078125 204.296875 150.132812 204.359375 C 153.457031 208.59375 157.144531 212.507812 161.042969 215.957031 C 160.78125 216.195312 160.515625 216.429688 160.261719 216.667969 C 159.378906 217.546875 158.664062 218.464844 158.117188 219.402344 C 153.578125 216.441406 149.425781 213.042969 145.746094 209.265625 C 146.738281 207.464844 148.171875 205.75 149.980469 204.160156 Z M 149.554688 203.597656 C 149.125 203.96875 148.707031 204.359375 148.316406 204.75 C 147.027344 206.03125 146.011719 207.355469 145.230469 208.710938 C 141.960938 205.285156 139.0625 201.542969 136.574219 197.503906 C 136.308594 197.085938 136.074219 196.65625 135.820312 196.230469 C 137.027344 194.050781 138.761719 191.988281 140.949219 190.0625 C 143.339844 194.714844 146.21875 199.253906 149.554688 203.597656 Z M 151.949219 189.472656 C 153.386719 192.707031 154.976562 195.839844 156.699219 198.855469 C 154.203125 200.136719 151.976562 201.570312 150.097656 203.132812 C 146.765625 198.792969 143.875 194.242188 141.503906 189.582031 C 143.832031 187.628906 146.617188 185.832031 149.796875 184.230469 C 150.46875 185.992188 151.1875 187.738281 151.949219 189.472656 Z M 163.621094 187.011719 C 164.484375 189.773438 165.410156 192.480469 166.375 195.105469 C 163.09375 196.046875 160.0625 197.210938 157.335938 198.546875 C 155.621094 195.539062 154.03125 192.414062 152.59375 189.183594 C 151.824219 187.445312 151.113281 185.683594 150.441406 183.90625 C 153.757812 182.296875 157.472656 180.878906 161.515625 179.71875 C 162.160156 182.125 162.851562 184.566406 163.621094 187.011719 Z M 174.875 176.929688 C 175.59375 182.425781 176.429688 187.78125 177.355469 192.804688 C 173.769531 193.296875 170.34375 193.996094 167.136719 194.886719 C 165.328125 190.019531 163.667969 184.832031 162.25 179.507812 C 166.183594 178.402344 170.417969 177.539062 174.875 176.929688 Z M 173.949219 169.0625 C 174.195312 171.453125 174.476562 173.851562 174.777344 176.210938 C 170.316406 176.8125 166.046875 177.671875 162.058594 178.789062 C 161.453125 176.492188 160.898438 174.167969 160.398438 171.832031 C 164.613281 170.652344 169.164062 169.707031 173.949219 169.0625 Z M 173.148438 160.289062 C 173.277344 161.949219 173.40625 163.476562 173.53125 164.820312 C 173.632812 165.992188 173.75 167.175781 173.878906 168.34375 C 169.082031 168.980469 164.503906 169.917969 160.234375 171.105469 C 159.679688 168.480469 159.191406 165.855469 158.789062 163.230469 C 163.257812 161.96875 168.082031 160.980469 173.148438 160.289062 Z M 173.105469 159.582031 C 168.035156 160.253906 163.195312 161.234375 158.679688 162.503906 C 157.9375 157.601562 157.480469 152.742188 157.402344 148.074219 C 162.078125 146.726562 167.136719 145.664062 172.476562 144.9375 C 172.523438 150.214844 172.796875 155.320312 173.105469 159.582031 Z M 189.253906 158.5 C 183.914062 158.507812 178.691406 158.855469 173.675781 159.5 C 173.3125 154.476562 173.097656 149.542969 173.058594 144.855469 C 178.226562 144.167969 183.660156 143.8125 189.253906 143.792969 Z M 205.550781 159.527344 C 200.542969 158.871094 195.3125 158.519531 189.964844 158.5 L 189.964844 143.792969 C 195.53125 143.804688 200.972656 144.167969 206.175781 144.847656 C 206.140625 149.542969 205.921875 154.484375 205.550781 159.527344 Z M 206.128906 159.597656 C 206.441406 155.328125 206.703125 150.226562 206.757812 144.921875 C 212.0625 145.636719 217.121094 146.691406 221.835938 148.046875 C 221.746094 152.730469 221.289062 157.628906 220.546875 162.558594 C 216.039062 161.277344 211.199219 160.28125 206.128906 159.597656 Z M 205.359375 168.34375 C 205.476562 167.175781 205.59375 165.992188 205.703125 164.820312 C 205.820312 163.484375 205.949219 161.976562 206.078125 160.324219 C 211.082031 161.007812 215.902344 162.015625 220.4375 163.3125 C 220.027344 165.910156 219.546875 168.507812 218.992188 171.105469 C 214.722656 169.917969 210.144531 168.980469 205.359375 168.34375 Z M 204.449219 176.210938 C 204.75 173.839844 205.03125 171.453125 205.285156 169.046875 C 210.046875 169.691406 214.605469 170.605469 218.847656 171.796875 C 218.339844 174.148438 217.785156 176.484375 217.175781 178.789062 C 213.179688 177.671875 208.917969 176.8125 204.449219 176.210938 Z M 201.871094 192.804688 C 202.796875 187.773438 203.640625 182.414062 204.359375 176.917969 C 208.792969 177.519531 213.035156 178.375 216.992188 179.480469 C 215.566406 184.8125 213.898438 190.019531 212.097656 194.894531 C 208.890625 193.996094 205.457031 193.296875 201.871094 192.804688 Z M 205.703125 209.691406 C 203.441406 209.066406 201.027344 208.554688 198.5 208.203125 C 199.644531 203.878906 200.746094 198.890625 201.753906 193.503906 C 205.296875 193.988281 208.683594 194.675781 211.851562 195.558594 C 209.917969 200.734375 207.820312 205.523438 205.703125 209.691406 Z M 212.453125 212.226562 C 210.625 211.335938 208.621094 210.5625 206.449219 209.910156 C 208.59375 205.695312 210.679688 200.90625 212.605469 195.765625 C 215.847656 196.703125 218.855469 197.847656 221.542969 199.164062 C 218.835938 203.832031 215.785156 208.203125 212.453125 212.226562 Z M 213.097656 212.550781 C 216.421875 208.527344 219.472656 204.152344 222.179688 199.480469 C 224.652344 200.734375 226.839844 202.160156 228.703125 203.707031 C 228.648438 203.777344 228.59375 203.84375 228.539062 203.914062 C 225.214844 208.148438 221.527344 212.054688 217.648438 215.496094 C 216.339844 214.414062 214.8125 213.425781 213.097656 212.550781 Z M 206.121094 210.554688 C 208.238281 211.179688 210.207031 211.917969 211.980469 212.769531 C 208.738281 216.621094 205.222656 220.144531 201.480469 223.261719 C 200.625 222.851562 199.691406 222.480469 198.691406 222.171875 C 201.117188 219.320312 203.652344 215.324219 206.121094 210.554688 Z M 198.320312 208.902344 C 200.789062 209.238281 203.160156 209.726562 205.375 210.34375 C 202.859375 215.222656 200.316406 219.210938 197.945312 221.953125 C 196.703125 221.609375 195.375 221.335938 193.996094 221.152344 C 195.421875 218.402344 196.894531 214.160156 198.320312 208.902344 Z M 189.964844 208.320312 C 192.605469 208.328125 195.1875 208.5 197.664062 208.808594 C 196.222656 214.078125 194.714844 218.320312 193.234375 221.0625 C 192.179688 220.945312 191.082031 220.882812 189.964844 220.871094 Z M 185.992188 221.0625 C 184.511719 218.320312 183.003906 214.078125 181.570312 208.808594 C 184.023438 208.492188 186.601562 208.328125 189.253906 208.3125 L 189.253906 220.871094 C 188.144531 220.882812 187.046875 220.945312 185.992188 221.0625 Z M 181.289062 221.953125 C 178.917969 219.210938 176.375 215.222656 173.859375 210.34375 C 176.066406 209.738281 178.425781 209.246094 180.917969 208.902344 C 182.332031 214.167969 183.804688 218.402344 185.238281 221.152344 C 183.851562 221.328125 182.523438 221.597656 181.289062 221.953125 Z M 177.753906 223.261719 C 174.011719 220.144531 170.5 216.621094 167.246094 212.78125 C 169.027344 211.933594 170.988281 211.191406 173.113281 210.554688 C 175.585938 215.324219 178.117188 219.320312 180.535156 222.164062 C 179.535156 222.480469 178.601562 222.84375 177.753906 223.261719 Z M 166.128906 212.542969 C 164.421875 213.425781 162.886719 214.414062 161.578125 215.484375 C 157.699219 212.042969 154.011719 208.148438 150.695312 203.914062 C 150.632812 203.84375 150.578125 203.769531 150.523438 203.695312 C 152.367188 202.171875 154.566406 200.761719 157.054688 199.5 C 159.761719 204.160156 162.804688 208.527344 166.128906 212.542969 Z M 172.777344 209.910156 C 170.617188 210.554688 168.601562 211.328125 166.78125 212.214844 C 163.449219 208.203125 160.40625 203.84375 157.699219 199.183594 C 160.371094 197.875 163.378906 196.738281 166.628906 195.792969 C 168.554688 200.917969 170.644531 205.703125 172.777344 209.910156 Z M 180.726562 208.203125 C 178.199219 208.554688 175.792969 209.066406 173.53125 209.691406 C 171.414062 205.523438 169.328125 200.734375 167.390625 195.566406 C 170.542969 194.695312 173.921875 194.003906 177.484375 193.515625 C 178.492188 198.890625 179.589844 203.878906 180.726562 208.203125 Z M 189.253906 192.707031 L 189.253906 207.601562 C 186.546875 207.621094 183.914062 207.800781 181.378906 208.121094 C 180.226562 203.796875 179.109375 198.808594 178.089844 193.433594 C 181.660156 192.96875 185.402344 192.722656 189.253906 192.707031 Z M 189.253906 175.949219 L 189.253906 191.996094 C 185.375 192.007812 181.589844 192.261719 177.964844 192.722656 C 177.019531 187.691406 176.175781 182.324219 175.457031 176.847656 C 179.871094 176.273438 184.496094 175.964844 189.253906 175.949219 Z M 189.253906 168.019531 L 189.253906 175.238281 C 184.484375 175.25 179.835938 175.558594 175.367188 176.128906 C 175.058594 173.769531 174.777344 171.378906 174.523438 168.972656 C 179.234375 168.371094 184.167969 168.035156 189.253906 168.019531 Z M 189.253906 167.308594 C 184.175781 167.320312 179.207031 167.644531 174.449219 168.265625 C 174.175781 165.574219 173.929688 162.878906 173.730469 160.214844 C 178.691406 159.570312 183.894531 159.226562 189.253906 159.207031 Z M 189.964844 167.308594 L 189.964844 159.21875 C 195.25 159.234375 200.464844 159.597656 205.496094 160.253906 C 205.304688 162.90625 205.058594 165.585938 204.777344 168.265625 C 200.019531 167.644531 195.050781 167.320312 189.964844 167.308594 Z M 189.964844 175.238281 L 189.964844 168.019531 C 195.03125 168.035156 199.972656 168.355469 204.714844 168.964844 C 204.460938 171.371094 204.179688 173.769531 203.867188 176.140625 C 199.398438 175.558594 194.742188 175.25 189.964844 175.238281 Z M 189.964844 191.996094 L 189.964844 175.949219 C 194.703125 175.957031 199.335938 176.265625 203.777344 176.839844 C 203.0625 182.324219 202.207031 187.691406 201.269531 192.734375 C 197.636719 192.261719 193.839844 192.007812 189.964844 191.996094 Z M 189.964844 192.707031 C 193.804688 192.722656 197.546875 192.960938 201.144531 193.421875 C 200.125 198.808594 199.007812 203.796875 197.847656 208.128906 C 195.3125 207.800781 192.667969 207.621094 189.964844 207.601562 Z M 174.957031 225.003906 C 170.597656 222.632812 166.238281 219.566406 162.105469 215.949219 C 163.378906 214.921875 164.886719 213.96875 166.59375 213.105469 C 169.835938 216.957031 173.339844 220.472656 177.066406 223.617188 C 176.285156 224.035156 175.574219 224.496094 174.957031 225.003906 Z M 202.160156 223.617188 C 205.894531 220.480469 209.402344 216.957031 212.632812 213.105469 C 214.324219 213.96875 215.820312 214.921875 217.101562 215.976562 C 212.96875 219.574219 208.628906 222.644531 204.269531 225.015625 C 203.652344 224.503906 202.953125 224.042969 202.160156 223.617188 Z M 197.011719 239.300781 C 196.292969 239.136719 195.605469 238.765625 194.941406 238.203125 C 196.113281 238.011719 197.21875 237.757812 198.265625 237.457031 C 199.628906 238.003906 200.960938 238.339844 202.398438 238.464844 C 200.625 238.820312 198.820312 239.09375 197.011719 239.300781 Z M 204.214844 233.078125 C 201.507812 235.796875 195.765625 237.550781 189.609375 237.550781 C 183.449219 237.550781 177.71875 235.796875 175.003906 233.078125 C 173.949219 232.027344 173.414062 230.898438 173.414062 229.746094 C 173.414062 225.433594 180.679688 221.925781 189.609375 221.925781 C 195.765625 221.925781 201.507812 223.6875 204.214844 226.402344 C 205.277344 227.457031 205.8125 228.585938 205.8125 229.746094 C 205.8125 230.898438 205.277344 232.027344 204.214844 233.078125 Z M 133.839844 203.304688 C 133.875 201.125 134.429688 199.007812 135.4375 196.964844 C 135.609375 197.273438 135.78125 197.574219 135.972656 197.882812 C 138.527344 202.023438 141.515625 205.867188 144.875 209.382812 C 144.066406 210.980469 143.601562 212.625 143.484375 214.304688 C 140.007812 211.191406 136.710938 207.546875 133.839844 203.304688 Z M 144.15625 214.90625 C 144.203125 213.1875 144.628906 211.527344 145.402344 209.925781 C 149.097656 213.6875 153.242188 217.074219 157.78125 220.027344 C 157.210938 221.171875 156.890625 222.34375 156.808594 223.542969 C 152.613281 221.328125 148.273438 218.484375 144.15625 214.90625 Z M 160.769531 231.046875 C 160.042969 230.328125 159.453125 229.582031 158.972656 228.828125 C 163.8125 230.582031 168.664062 231.664062 172.988281 232.152344 C 173.230469 232.617188 173.539062 233.054688 173.921875 233.488281 C 170 233.660156 165.730469 233.054688 161.597656 231.816406 C 161.316406 231.5625 161.023438 231.308594 160.769531 231.046875 Z M 171.214844 237.066406 C 170.523438 236.832031 169.84375 236.578125 169.191406 236.3125 C 171.46875 236.566406 173.824219 236.421875 177.347656 236.015625 C 178.128906 236.421875 178.972656 236.785156 179.890625 237.09375 C 177.957031 237.75 176.019531 237.949219 173.660156 237.730469 C 173.648438 237.730469 173.632812 237.730469 173.632812 237.730469 C 172.824219 237.53125 172.015625 237.304688 171.214844 237.066406 Z M 208 237.066406 C 207.203125 237.304688 206.402344 237.523438 205.59375 237.730469 C 205.585938 237.730469 205.585938 237.730469 205.578125 237.730469 C 203.214844 237.949219 201.296875 237.75 199.371094 237.105469 C 200.289062 236.785156 201.144531 236.421875 201.917969 236.023438 C 205.414062 236.421875 207.757812 236.566406 210.027344 236.3125 C 209.375 236.578125 208.691406 236.832031 208 237.066406 Z M 217.621094 231.816406 C 213.488281 233.054688 209.226562 233.660156 205.324219 233.488281 C 205.695312 233.054688 206.003906 232.617188 206.257812 232.152344 C 210.5625 231.664062 215.414062 230.589844 220.253906 228.839844 C 219.765625 229.582031 219.175781 230.328125 218.457031 231.046875 C 218.191406 231.308594 217.902344 231.5625 217.621094 231.816406 Z M 222.40625 223.550781 C 222.335938 222.34375 222.007812 221.179688 221.4375 220.027344 C 225.984375 217.074219 230.128906 213.695312 233.824219 209.925781 C 234.613281 211.542969 235.023438 213.214844 235.058594 214.914062 C 230.945312 218.484375 226.605469 221.335938 222.40625 223.550781 Z M 235.742188 214.316406 C 235.625 212.632812 235.160156 210.988281 234.34375 209.390625 C 237.722656 205.867188 240.710938 202.023438 243.261719 197.882812 C 243.445312 197.574219 243.617188 197.273438 243.796875 196.964844 C 244.816406 199.027344 245.351562 201.152344 245.378906 203.324219 C 242.507812 207.558594 239.21875 211.199219 235.742188 214.316406 Z M 246.042969 202.296875 C 245.867188 200.226562 245.261719 198.210938 244.234375 196.238281 C 245.34375 194.304688 246.359375 192.34375 247.25 190.34375 C 248.367188 192.589844 248.9375 194.878906 248.964844 197.230469 C 248.058594 199 247.078125 200.691406 246.042969 202.296875 Z M 243.652344 173.929688 C 240.964844 171.652344 237.75 169.582031 234.125 167.746094 C 235.058594 162.859375 235.578125 158.027344 235.640625 153.386719 C 239.410156 155.300781 242.707031 157.480469 245.449219 159.871094 C 245.449219 164.1875 244.925781 168.628906 243.84375 173.167969 C 243.789062 173.421875 243.714844 173.675781 243.652344 173.929688 Z M 212.0625 116.328125 C 213.996094 118.0625 215.640625 120.195312 217.011719 122.710938 C 213.070312 121.621094 208.855469 120.777344 204.460938 120.1875 C 203.816406 117.871094 203.007812 115.847656 202.007812 114.238281 C 205.523438 114.730469 208.890625 115.429688 212.0625 116.328125 Z M 167.136719 116.355469 C 170.308594 115.457031 173.695312 114.746094 177.21875 114.246094 C 176.21875 115.855469 175.421875 117.878906 174.777344 120.1875 C 170.378906 120.785156 166.164062 121.632812 162.222656 122.710938 C 163.578125 120.222656 165.210938 118.089844 167.136719 116.355469 Z M 135.382812 173.167969 C 134.3125 168.628906 133.785156 164.175781 133.777344 159.863281 C 136.492188 157.507812 139.789062 155.339844 143.585938 153.414062 C 143.65625 158.019531 144.167969 162.796875 145.09375 167.644531 C 141.460938 169.472656 138.246094 171.523438 135.546875 173.796875 C 135.492188 173.585938 135.4375 173.378906 135.382812 173.167969 Z M 127.371094 189.945312 C 127.371094 187.445312 127.980469 185.011719 129.132812 182.6875 C 129.816406 184.976562 130.652344 187.246094 131.613281 189.480469 C 130.488281 191.5625 129.824219 193.707031 129.617188 195.886719 C 128.796875 194.175781 128.054688 192.398438 127.390625 190.535156 C 127.382812 190.34375 127.371094 190.144531 127.371094 189.945312 Z M 130.734375 201.070312 C 130.542969 200.34375 130.414062 199.617188 130.34375 198.882812 C 131.214844 200.492188 132.140625 202.035156 133.121094 203.496094 C 133.121094 203.503906 133.121094 203.515625 133.121094 203.523438 C 133.121094 204.570312 133.238281 205.605469 133.464844 206.628906 C 132.457031 204.824219 131.550781 202.96875 130.734375 201.070312 Z M 138.054688 213.667969 C 138.007812 213.625 137.960938 213.589844 137.910156 213.570312 C 136.945312 212.261719 136.046875 210.917969 135.191406 209.546875 C 134.449219 207.921875 134.003906 206.257812 133.875 204.578125 C 136.746094 208.664062 140.007812 212.1875 143.441406 215.203125 C 143.449219 216.867188 143.8125 218.511719 144.511719 220.109375 C 142.132812 218.21875 139.933594 216.085938 138.054688 213.667969 Z M 149.242188 225.441406 C 148.308594 224.550781 147.492188 223.632812 146.808594 222.6875 C 150.304688 225.058594 154.085938 226.957031 157.910156 228.429688 C 158.4375 229.417969 159.144531 230.375 160.042969 231.308594 C 157.117188 230.300781 154.3125 228.984375 151.777344 227.402344 C 150.925781 226.765625 150.078125 226.121094 149.242188 225.441406 Z M 229.984375 225.441406 C 229.128906 226.132812 228.257812 226.804688 227.375 227.449219 C 224.851562 229.027344 222.042969 230.328125 219.136719 231.328125 C 220.027344 230.410156 220.746094 229.4375 221.289062 228.4375 C 225.113281 226.976562 228.894531 225.078125 232.390625 222.707031 C 231.71875 223.644531 230.910156 224.558594 229.984375 225.441406 Z M 241.308594 213.570312 C 241.265625 213.589844 241.21875 213.625 241.183594 213.667969 C 239.292969 216.09375 237.085938 218.230469 234.707031 220.128906 C 235.40625 218.519531 235.769531 216.875 235.777344 215.214844 C 239.210938 212.199219 242.472656 208.675781 245.34375 204.605469 C 245.214844 206.285156 244.761719 207.9375 244.023438 209.5625 C 243.171875 210.925781 242.273438 212.261719 241.308594 213.570312 Z M 245.75 206.628906 C 245.976562 205.613281 246.097656 204.570312 246.097656 203.523438 C 247.078125 202.050781 248.003906 200.527344 248.875 198.910156 C 248.800781 199.636719 248.675781 200.355469 248.492188 201.082031 C 247.667969 202.96875 246.757812 204.832031 245.75 206.628906 Z M 248.167969 149.390625 C 246.976562 147.84375 245.542969 146.363281 243.914062 144.949219 C 243.351562 143.195312 242.691406 141.46875 241.925781 139.789062 C 243.097656 140.914062 244.144531 142.078125 245.03125 143.292969 C 246.195312 145.265625 247.230469 147.308594 248.167969 149.390625 Z M 228.511719 126.898438 C 225.296875 125.382812 221.753906 124.066406 217.957031 122.976562 C 216.722656 120.578125 215.25 118.507812 213.535156 116.746094 C 216.058594 117.527344 218.445312 118.445312 220.664062 119.46875 C 221.527344 119.953125 222.378906 120.441406 223.226562 120.96875 C 225.222656 122.605469 226.996094 124.59375 228.511719 126.898438 Z M 199.320312 112.195312 C 199.726562 112.519531 200.109375 112.894531 200.480469 113.328125 C 197.074219 112.921875 193.558594 112.703125 189.964844 112.683594 L 189.964844 111.476562 C 193.125 111.484375 196.25 111.730469 199.320312 112.195312 Z M 189.253906 111.46875 L 189.253906 112.683594 C 185.675781 112.703125 182.152344 112.929688 178.746094 113.339844 C 179.109375 112.902344 179.5 112.519531 179.90625 112.195312 C 182.960938 111.730469 186.085938 111.484375 189.253906 111.46875 Z M 134.238281 143.257812 C 135.121094 142.070312 136.136719 140.914062 137.289062 139.816406 C 136.519531 141.515625 135.855469 143.257812 135.292969 145.039062 C 133.640625 146.464844 132.214844 147.972656 131.023438 149.515625 C 131.984375 147.363281 133.058594 145.273438 134.238281 143.257812 Z M 125.492188 174.386719 C 125.609375 172.597656 126.027344 170.84375 126.734375 169.136719 C 126.972656 173.339844 127.691406 177.539062 128.84375 181.671875 C 127.664062 183.839844 126.964844 186.074219 126.746094 188.375 C 125.910156 184.214844 125.472656 179.933594 125.472656 175.601562 C 125.472656 175.195312 125.484375 174.785156 125.492188 174.386719 Z M 124.382812 175.449219 C 124.382812 175.492188 124.394531 175.53125 124.410156 175.574219 C 124.410156 175.585938 124.402344 175.59375 124.402344 175.601562 C 124.402344 193.015625 131.1875 209.390625 143.503906 221.707031 C 155.820312 234.023438 172.1875 240.800781 189.609375 240.800781 C 225.542969 240.800781 254.777344 211.582031 254.816406 175.65625 C 254.84375 175.59375 254.859375 175.519531 254.859375 175.449219 C 254.859375 174.875 254.824219 174.3125 254.769531 173.75 C 254.308594 157.027344 247.59375 141.367188 235.714844 129.496094 C 223.398438 117.179688 207.03125 110.394531 189.609375 110.394531 C 172.195312 110.394531 155.820312 117.179688 143.503906 129.496094 C 131.550781 141.449219 124.828125 157.21875 124.449219 174.066406 C 124.402344 174.53125 124.382812 174.984375 124.382812 175.449219 " fill-opacity="1" fill-rule="nonzero"/><g clip-path="url(#6e7c49bd5b)"><path fill="#000000" d="M 258.640625 188.300781 C 257.648438 188.382812 257.011719 189.046875 257.214844 189.773438 C 257.414062 190.507812 258.375 191.035156 259.367188 190.953125 C 266.289062 190.371094 271.847656 189.328125 275.671875 187.835938 C 279.730469 186.257812 281.957031 184.148438 281.957031 181.523438 C 281.957031 176.074219 271.566406 169.753906 254.777344 163.949219 C 238.574219 158.34375 216.222656 153.039062 191.5625 149.378906 C 179.101562 147.535156 167.253906 146.28125 156.492188 145.59375 C 140.90625 144.59375 127.554688 144.792969 117.917969 146.101562 C 107.6875 147.492188 101.449219 150.226562 100.804688 154.238281 C 100.769531 154.476562 100.75 154.710938 100.75 154.9375 C 100.75 157.199219 102.4375 159.5625 105.5625 161.949219 C 108.570312 164.230469 112.949219 166.582031 118.453125 168.910156 C 119.359375 169.289062 120.460938 169.097656 120.90625 168.464844 C 121.351562 167.835938 120.976562 167.019531 120.070312 166.628906 C 114.902344 164.449219 110.824219 162.269531 108.105469 160.199219 C 105.710938 158.371094 104.410156 156.675781 104.410156 155.175781 C 104.410156 155.03125 104.429688 154.894531 104.445312 154.777344 C 104.902344 151.949219 110.160156 149.90625 118.871094 148.726562 C 128.171875 147.453125 141.195312 147.28125 156.492188 148.253906 C 167.136719 148.933594 178.855469 150.179688 191.144531 152.003906 C 215.503906 155.609375 237.539062 160.832031 253.460938 166.339844 C 268.792969 171.644531 278.285156 177.046875 278.285156 181.289062 C 278.285156 182.914062 276.679688 184.3125 273.734375 185.457031 C 270.273438 186.800781 265.125 187.757812 258.640625 188.300781 " fill-opacity="1" fill-rule="nonzero"/></g><g clip-path="url(#884a0667e4)"><path fill="#000000" d="M 256.941406 108.90625 L 257.03125 108.90625 C 257.648438 117.035156 264.132812 123.53125 272.265625 124.136719 L 272.265625 124.238281 C 264.132812 124.847656 257.648438 131.339844 257.03125 139.472656 L 256.941406 139.472656 C 256.324219 131.339844 249.839844 124.847656 241.707031 124.238281 L 241.707031 124.136719 C 249.839844 123.53125 256.324219 117.035156 256.941406 108.90625 " fill-opacity="1" fill-rule="evenodd"/></g><path fill="#000000" d="M 272.507812 136.953125 L 272.554688 136.953125 C 272.808594 140.414062 275.570312 143.175781 279.023438 143.429688 L 279.023438 143.476562 C 275.570312 143.730469 272.808594 146.492188 272.554688 149.945312 L 272.507812 149.945312 C 272.253906 146.492188 269.492188 143.730469 266.03125 143.476562 L 266.03125 143.429688 C 269.492188 143.175781 272.253906 140.414062 272.507812 136.953125 " fill-opacity="1" fill-rule="evenodd"/><g clip-path="url(#845c8c37ea)"><path fill="#000000" d="M 107.4375 231.683594 C 129.714844 241.679688 154.21875 247.546875 175.792969 249.777344 C 206.0625 252.90625 238.402344 250.234375 265.015625 238.972656 C 284.445312 230.734375 303.472656 216.433594 307.863281 195.335938 C 308.480469 192.417969 308.777344 189.414062 308.777344 186.375 C 308.777344 166.964844 296.917969 150.03125 281.089844 136.574219 C 290.296875 148.113281 296.324219 161.378906 296.324219 175.835938 C 296.324219 179.226562 295.972656 182.566406 295.304688 185.832031 C 290.613281 208.355469 270.972656 223.636719 250.136719 232.472656 C 223.257812 243.855469 190.726562 246.617188 160.121094 243.4375 C 143.027344 241.679688 124.882812 237.832031 107.4375 231.683594 " fill-opacity="1" fill-rule="evenodd"/></g><path fill="#000000" d="M 74.886719 205.859375 L 75.113281 205.753906 L 75.324219 205.628906 C 89.0625 230.558594 94.226562 230.085938 117.539062 217.226562 L 117.765625 217.628906 C 94.457031 230.507812 91.292969 234.597656 105.046875 259.527344 L 104.625 259.773438 C 90.871094 234.84375 85.707031 235.320312 62.394531 248.179688 L 62.167969 247.757812 C 85.476562 234.898438 88.640625 230.804688 74.886719 205.859375 " fill-opacity="1" fill-rule="evenodd"/><path fill="#000000" d="M 109.773438 244.4375 C 134.261719 256.3125 161.351562 263.65625 185.3125 266.851562 C 218.921875 271.351562 255.039062 269.433594 285.0625 257.769531 C 306.984375 249.234375 328.648438 233.933594 334.234375 210.585938 C 335.007812 207.351562 335.445312 204.015625 335.550781 200.625 C 336.183594 179.015625 323.535156 159.746094 306.355469 144.25 C 316.226562 157.40625 322.5 172.375 322.007812 188.484375 C 321.902344 192.246094 321.410156 195.96875 320.546875 199.570312 C 314.59375 224.496094 292.210938 240.886719 268.707031 250.042969 C 238.386719 261.828125 202.054688 263.832031 168.082031 259.28125 C 149.089844 256.75 128.992188 251.867188 109.773438 244.4375 " fill-opacity="1" fill-rule="evenodd"/><g clip-path="url(#355596d50c)"><g clip-path="url(#ca0668bf60)"><g clip-path="url(#3a1e7655c3)"><path fill="#000000" d="M 270.109375 115.609375 C 247.058594 107.550781 222.140625 103.800781 200.457031 103.417969 C 170.03125 102.886719 138.035156 108.308594 112.480469 121.800781 C 93.824219 131.671875 76.089844 147.542969 73.515625 168.941406 C 73.152344 171.898438 73.113281 174.917969 73.371094 177.945312 C 75.03125 197.285156 88.289062 213.144531 105.210938 225.203125 C 95.054688 214.488281 87.917969 201.789062 86.683594 187.382812 C 86.390625 184.003906 86.457031 180.648438 86.84375 177.335938 C 89.59375 154.496094 107.855469 137.589844 127.863281 127.007812 C 153.667969 113.371094 185.851562 107.84375 216.613281 108.398438 C 233.792969 108.691406 252.203125 110.972656 270.109375 115.609375 " fill-opacity="1" fill-rule="evenodd"/></g></g></g><g clip-path="url(#1583e3d97a)"><g clip-path="url(#b71dca859b)"><g clip-path="url(#dd874fac08)"><path fill="#000000" d="M 304.746094 138.558594 L 304.527344 138.683594 L 304.328125 138.824219 C 288.511719 115.160156 283.40625 116.074219 261.277344 130.878906 L 261.015625 130.496094 C 283.144531 115.671875 285.945312 111.324219 270.109375 87.664062 L 270.507812 87.382812 C 286.34375 111.042969 291.449219 110.128906 313.578125 95.328125 L 313.839844 95.726562 C 291.710938 110.53125 288.910156 114.878906 304.746094 138.558594 " fill-opacity="1" fill-rule="evenodd"/></g></g></g><g clip-path="url(#fa31e0e449)"><g clip-path="url(#3eb40144d2)"><g clip-path="url(#e7e89cc2c7)"><path fill="#000000" d="M 266.691406 103.101562 C 241.277344 93.359375 213.660156 88.359375 189.511719 87.21875 C 155.644531 85.609375 119.820312 90.601562 90.90625 104.785156 C 69.789062 115.164062 49.515625 132.257812 45.941406 156 C 45.449219 159.285156 45.296875 162.648438 45.480469 166.035156 C 46.695312 187.617188 60.945312 205.738281 79.386719 219.710938 C 68.425781 207.441406 60.898438 193.066406 60.011719 176.972656 C 59.796875 173.21875 59.96875 169.464844 60.519531 165.804688 C 64.324219 140.457031 85.222656 122.21875 107.859375 111.089844 C 137.0625 96.757812 173.089844 91.660156 207.328125 93.289062 C 226.46875 94.191406 246.90625 97.339844 266.691406 103.101562 " fill-opacity="1" fill-rule="evenodd"/></g></g></g><g clip-path="url(#4c11d2718f)"><g clip-path="url(#6863d48e9d)"><g clip-path="url(#90f5dd39cc)"><path fill="#000000" d="M 270.101562 279.9375 C 273.714844 276.082031 278.117188 272.859375 282.238281 270.613281 C 288.019531 267.457031 294.699219 265.285156 300.953125 265.308594 C 305.523438 265.332031 310.515625 266.59375 313.15625 270.441406 C 313.523438 270.972656 313.832031 271.546875 314.089844 272.152344 C 315.710938 276.027344 314.757812 280.402344 312.722656 284.410156 C 313.597656 281.335938 313.691406 278.183594 312.480469 275.296875 C 312.199219 274.621094 311.851562 273.984375 311.441406 273.386719 C 308.625 269.285156 303.425781 267.875 298.527344 267.851562 C 292.207031 267.824219 285.480469 269.996094 279.636719 273.1875 C 276.371094 274.96875 273.070312 277.253906 270.101562 279.9375 " fill-opacity="1" fill-rule="evenodd"/></g></g></g><g clip-path="url(#b7446d918b)"><g clip-path="url(#2eca744372)"><g clip-path="url(#40d3d8b23f)"><path fill="#000000" d="M 265.761719 287.816406 L 265.816406 287.816406 L 265.867188 287.824219 C 266.527344 281.699219 267.597656 281.363281 273.328125 281.980469 L 273.339844 281.878906 C 267.609375 281.257812 266.632812 280.707031 267.296875 274.578125 L 267.191406 274.566406 C 266.53125 280.691406 265.460938 281.027344 259.730469 280.410156 L 259.71875 280.511719 C 265.449219 281.132812 266.421875 281.683594 265.761719 287.816406 " fill-opacity="1" fill-rule="evenodd"/></g></g></g><g clip-path="url(#4da3d63d90)"><g clip-path="url(#7ef1af7d92)"><g clip-path="url(#e872a4f615)"><path fill="#000000" d="M 269.503906 277.195312 C 273.398438 272.777344 278.191406 269.046875 282.710938 266.40625 C 289.042969 262.699219 296.414062 260.0625 303.382812 259.882812 C 308.476562 259.753906 314.078125 260.996094 317.148438 265.191406 C 317.570312 265.773438 317.9375 266.402344 318.242188 267.070312 C 320.175781 271.332031 319.261719 276.238281 317.125 280.765625 C 317.996094 277.3125 317.996094 273.800781 316.554688 270.625 C 316.21875 269.882812 315.808594 269.183594 315.335938 268.535156 C 312.0625 264.054688 306.222656 262.652344 300.765625 262.792969 C 293.726562 262.972656 286.304688 265.609375 279.902344 269.359375 C 276.320312 271.453125 272.71875 274.105469 269.503906 277.195312 " fill-opacity="1" fill-rule="evenodd"/></g></g></g></svg>